<svg width="380" height="71" viewBox="0 0 380 71" fill="none" xmlns="http://www.w3.org/2000/svg">
<rect x="0.5" y="0.5" width="379" height="70" stroke="white"/>
<line x1="312.5" y1="2.18557e-08" x2="312.5" y2="71" stroke="white"/>
<path d="M25.458 42V29.22H34.44V30.984H27.474V34.566H31.218C32.634 34.566 33.696 34.902 34.404 35.574C35.112 36.234 35.466 37.11 35.466 38.202C35.466 38.934 35.31 39.588 34.998 40.164C34.698 40.728 34.242 41.178 33.63 41.514C33.03 41.838 32.268 42 31.344 42H25.458ZM27.474 40.236H31.074C31.626 40.236 32.07 40.134 32.406 39.93C32.754 39.726 33 39.468 33.144 39.156C33.3 38.832 33.378 38.496 33.378 38.148C33.378 37.8 33.312 37.476 33.18 37.176C33.048 36.876 32.808 36.636 32.46 36.456C32.124 36.264 31.65 36.168 31.038 36.168H27.474V40.236ZM41.372 42.18C40.64 42.18 39.974 42.054 39.374 41.802C38.786 41.538 38.276 41.184 37.844 40.74C37.412 40.284 37.076 39.768 36.836 39.192C36.608 38.604 36.494 37.98 36.494 37.32C36.494 36.432 36.698 35.622 37.106 34.89C37.514 34.146 38.084 33.552 38.816 33.108C39.548 32.652 40.406 32.424 41.39 32.424C42.374 32.424 43.22 32.652 43.928 33.108C44.648 33.552 45.206 34.14 45.602 34.872C45.998 35.604 46.196 36.39 46.196 37.23C46.196 37.374 46.19 37.512 46.178 37.644C46.166 37.764 46.154 37.866 46.142 37.95H38.6C38.636 38.502 38.786 38.988 39.05 39.408C39.326 39.816 39.674 40.14 40.094 40.38C40.514 40.608 40.964 40.722 41.444 40.722C41.972 40.722 42.47 40.59 42.938 40.326C43.418 40.062 43.742 39.714 43.91 39.282L45.602 39.768C45.398 40.224 45.086 40.638 44.666 41.01C44.258 41.37 43.772 41.658 43.208 41.874C42.644 42.078 42.032 42.18 41.372 42.18ZM38.546 36.636H44.234C44.198 36.096 44.042 35.622 43.766 35.214C43.502 34.794 43.16 34.47 42.74 34.242C42.332 34.002 41.876 33.882 41.372 33.882C40.88 33.882 40.424 34.002 40.004 34.242C39.596 34.47 39.26 34.794 38.996 35.214C38.732 35.622 38.582 36.096 38.546 36.636ZM52.077 42.18C51.345 42.18 50.679 42.054 50.079 41.802C49.491 41.538 48.981 41.178 48.549 40.722C48.117 40.266 47.781 39.744 47.541 39.156C47.313 38.568 47.199 37.944 47.199 37.284C47.199 36.396 47.397 35.586 47.793 34.854C48.201 34.122 48.765 33.534 49.485 33.09C50.217 32.646 51.081 32.424 52.077 32.424C53.037 32.424 53.871 32.64 54.579 33.072C55.299 33.492 55.827 34.056 56.163 34.764L54.237 35.376C54.021 34.98 53.715 34.674 53.319 34.458C52.935 34.23 52.509 34.116 52.041 34.116C51.513 34.116 51.033 34.254 50.601 34.53C50.181 34.794 49.845 35.166 49.593 35.646C49.353 36.114 49.233 36.66 49.233 37.284C49.233 37.884 49.359 38.43 49.611 38.922C49.863 39.402 50.199 39.786 50.619 40.074C51.051 40.35 51.531 40.488 52.059 40.488C52.383 40.488 52.695 40.434 52.995 40.326C53.307 40.206 53.577 40.05 53.805 39.858C54.033 39.654 54.195 39.432 54.291 39.192L56.235 39.768C56.031 40.236 55.725 40.65 55.317 41.01C54.921 41.37 54.447 41.658 53.895 41.874C53.355 42.078 52.749 42.18 52.077 42.18ZM57.8657 42V32.586H65.9657V42H63.9857V34.332H59.8457V42H57.8657ZM67.6039 42.09V40.326C67.9039 40.326 68.1739 40.254 68.4139 40.11C68.6539 39.954 68.8639 39.702 69.0439 39.354C69.2239 38.994 69.3679 38.496 69.4759 37.86C69.5839 37.224 69.6559 36.414 69.6919 35.43L69.8179 32.586H76.5319V42H74.5519V34.332H71.5639L71.5279 35.61C71.4799 36.87 71.3659 37.92 71.1859 38.76C71.0059 39.588 70.7539 40.248 70.4299 40.74C70.1179 41.22 69.7219 41.568 69.2419 41.784C68.7739 41.988 68.2279 42.09 67.6039 42.09ZM78.2228 39.246C78.2228 38.646 78.3908 38.124 78.7268 37.68C79.0748 37.224 79.5488 36.876 80.1488 36.636C80.7488 36.384 81.4448 36.258 82.2368 36.258C82.6568 36.258 83.0828 36.288 83.5148 36.348C83.9588 36.408 84.3488 36.504 84.6848 36.636V36.042C84.6848 35.382 84.4868 34.866 84.0908 34.494C83.6948 34.122 83.1248 33.936 82.3808 33.936C81.8528 33.936 81.3548 34.032 80.8868 34.224C80.4188 34.404 79.9208 34.662 79.3928 34.998L78.7268 33.666C79.3508 33.246 79.9748 32.934 80.5988 32.73C81.2348 32.526 81.9008 32.424 82.5968 32.424C83.8568 32.424 84.8468 32.76 85.5668 33.432C86.2988 34.092 86.6648 35.034 86.6648 36.258V39.768C86.6648 39.996 86.7008 40.158 86.7728 40.254C86.8568 40.35 86.9948 40.404 87.1868 40.416V42C87.0068 42.036 86.8448 42.06 86.7008 42.072C86.5568 42.084 86.4368 42.09 86.3408 42.09C85.9208 42.09 85.6028 41.988 85.3868 41.784C85.1708 41.58 85.0448 41.34 85.0088 41.064L84.9548 40.524C84.5468 41.052 84.0248 41.46 83.3888 41.748C82.7528 42.036 82.1108 42.18 81.4628 42.18C80.8388 42.18 80.2808 42.054 79.7888 41.802C79.2968 41.538 78.9128 41.184 78.6368 40.74C78.3608 40.296 78.2228 39.798 78.2228 39.246ZM84.2168 39.822C84.3608 39.666 84.4748 39.51 84.5588 39.354C84.6428 39.198 84.6848 39.06 84.6848 38.94V37.86C84.3488 37.728 83.9948 37.632 83.6228 37.572C83.2508 37.5 82.8848 37.464 82.5248 37.464C81.8048 37.464 81.2168 37.608 80.7608 37.896C80.3168 38.184 80.0947 38.58 80.0947 39.084C80.0947 39.36 80.1668 39.624 80.3108 39.876C80.4668 40.128 80.6828 40.332 80.9588 40.488C81.2468 40.644 81.6008 40.722 82.0208 40.722C82.4528 40.722 82.8668 40.638 83.2628 40.47C83.6588 40.302 83.9768 40.086 84.2168 39.822ZM91.1934 42V34.332H88.0794V32.586H96.3054V34.332H93.1734V42H91.1934ZM97.7857 42V32.586H99.7657V36.33H104.14V32.586H106.12V42H104.14V38.04H99.7657V42H97.7857ZM107.824 39.246C107.824 38.646 107.992 38.124 108.328 37.68C108.676 37.224 109.15 36.876 109.75 36.636C110.35 36.384 111.046 36.258 111.838 36.258C112.258 36.258 112.684 36.288 113.116 36.348C113.56 36.408 113.95 36.504 114.286 36.636V36.042C114.286 35.382 114.088 34.866 113.692 34.494C113.296 34.122 112.726 33.936 111.982 33.936C111.454 33.936 110.956 34.032 110.488 34.224C110.02 34.404 109.522 34.662 108.994 34.998L108.328 33.666C108.952 33.246 109.576 32.934 110.2 32.73C110.836 32.526 111.502 32.424 112.198 32.424C113.458 32.424 114.448 32.76 115.168 33.432C115.9 34.092 116.266 35.034 116.266 36.258V39.768C116.266 39.996 116.302 40.158 116.374 40.254C116.458 40.35 116.596 40.404 116.788 40.416V42C116.608 42.036 116.446 42.06 116.302 42.072C116.158 42.084 116.038 42.09 115.942 42.09C115.522 42.09 115.204 41.988 114.988 41.784C114.772 41.58 114.646 41.34 114.61 41.064L114.556 40.524C114.148 41.052 113.626 41.46 112.99 41.748C112.354 42.036 111.712 42.18 111.064 42.18C110.44 42.18 109.882 42.054 109.39 41.802C108.898 41.538 108.514 41.184 108.238 40.74C107.962 40.296 107.824 39.798 107.824 39.246ZM113.818 39.822C113.962 39.666 114.076 39.51 114.16 39.354C114.244 39.198 114.286 39.06 114.286 38.94V37.86C113.95 37.728 113.596 37.632 113.224 37.572C112.852 37.5 112.486 37.464 112.126 37.464C111.406 37.464 110.818 37.608 110.362 37.896C109.918 38.184 109.696 38.58 109.696 39.084C109.696 39.36 109.768 39.624 109.912 39.876C110.068 40.128 110.284 40.332 110.56 40.488C110.848 40.644 111.202 40.722 111.622 40.722C112.054 40.722 112.468 40.638 112.864 40.47C113.26 40.302 113.578 40.086 113.818 39.822ZM118.074 42L120.594 38.274C120.006 38.13 119.538 37.83 119.19 37.374C118.842 36.918 118.668 36.306 118.668 35.538C118.668 34.95 118.8 34.434 119.064 33.99C119.34 33.546 119.724 33.198 120.216 32.946C120.708 32.694 121.278 32.568 121.926 32.568H126.066V42H124.086V38.598H122.538L120.234 42H118.074ZM122.124 37.158H124.086V34.098H122.25C121.746 34.098 121.344 34.236 121.044 34.512C120.756 34.788 120.612 35.148 120.612 35.592C120.612 36.036 120.738 36.408 120.99 36.708C121.254 37.008 121.632 37.158 122.124 37.158ZM132.907 42V32.586H134.869V36.312H135.805L138.577 32.586H140.773L137.335 37.14L141.169 42H138.883L135.787 38.094H134.869V42H132.907ZM146.418 42.18C145.674 42.18 145.008 42.054 144.42 41.802C143.832 41.538 143.322 41.178 142.89 40.722C142.47 40.266 142.146 39.75 141.918 39.174C141.69 38.586 141.576 37.962 141.576 37.302C141.576 36.642 141.69 36.018 141.918 35.43C142.146 34.842 142.47 34.326 142.89 33.882C143.322 33.426 143.832 33.072 144.42 32.82C145.02 32.556 145.686 32.424 146.418 32.424C147.15 32.424 147.81 32.556 148.398 32.82C148.998 33.072 149.508 33.426 149.928 33.882C150.36 34.326 150.69 34.842 150.918 35.43C151.146 36.018 151.26 36.642 151.26 37.302C151.26 37.962 151.146 38.586 150.918 39.174C150.69 39.75 150.36 40.266 149.928 40.722C149.508 41.178 148.998 41.538 148.398 41.802C147.81 42.054 147.15 42.18 146.418 42.18ZM143.61 37.32C143.61 37.92 143.736 38.46 143.988 38.94C144.24 39.42 144.576 39.798 144.996 40.074C145.416 40.35 145.89 40.488 146.418 40.488C146.934 40.488 147.402 40.35 147.822 40.074C148.254 39.786 148.596 39.402 148.848 38.922C149.1 38.43 149.226 37.89 149.226 37.302C149.226 36.702 149.1 36.162 148.848 35.682C148.596 35.202 148.254 34.824 147.822 34.548C147.402 34.26 146.934 34.116 146.418 34.116C145.89 34.116 145.416 34.26 144.996 34.548C144.576 34.836 144.24 35.22 143.988 35.7C143.736 36.168 143.61 36.708 143.61 37.32ZM153.016 42V32.586H154.996V36.33H159.37V32.586H161.35V42H159.37V38.04H154.996V42H153.016ZM168.005 42.18C167.273 42.18 166.607 42.054 166.007 41.802C165.419 41.538 164.909 41.178 164.477 40.722C164.045 40.266 163.709 39.744 163.469 39.156C163.241 38.568 163.127 37.944 163.127 37.284C163.127 36.396 163.325 35.586 163.721 34.854C164.129 34.122 164.693 33.534 165.413 33.09C166.145 32.646 167.009 32.424 168.005 32.424C168.965 32.424 169.799 32.64 170.507 33.072C171.227 33.492 171.755 34.056 172.091 34.764L170.165 35.376C169.949 34.98 169.643 34.674 169.247 34.458C168.863 34.23 168.437 34.116 167.969 34.116C167.441 34.116 166.961 34.254 166.529 34.53C166.109 34.794 165.773 35.166 165.521 35.646C165.281 36.114 165.161 36.66 165.161 37.284C165.161 37.884 165.287 38.43 165.539 38.922C165.791 39.402 166.127 39.786 166.547 40.074C166.979 40.35 167.459 40.488 167.987 40.488C168.311 40.488 168.623 40.434 168.923 40.326C169.235 40.206 169.505 40.05 169.733 39.858C169.961 39.654 170.123 39.432 170.219 39.192L172.163 39.768C171.959 40.236 171.653 40.65 171.245 41.01C170.849 41.37 170.375 41.658 169.823 41.874C169.283 42.078 168.677 42.18 168.005 42.18ZM174.896 45.996C174.68 45.996 174.452 45.966 174.212 45.906C173.972 45.846 173.72 45.756 173.456 45.636L173.96 44.16C174.104 44.232 174.242 44.286 174.374 44.322C174.506 44.358 174.626 44.376 174.734 44.376C175.034 44.376 175.304 44.25 175.544 43.998C175.796 43.758 176.018 43.392 176.21 42.9L176.57 41.928L172.592 32.586H174.662L177.542 39.984L180.098 32.586H182.006L177.866 43.44C177.662 44.004 177.404 44.472 177.092 44.844C176.792 45.216 176.456 45.498 176.084 45.69C175.712 45.894 175.316 45.996 174.896 45.996ZM182.705 42.09V40.326C183.005 40.326 183.275 40.254 183.515 40.11C183.755 39.954 183.965 39.702 184.145 39.354C184.325 38.994 184.469 38.496 184.577 37.86C184.685 37.224 184.757 36.414 184.793 35.43L184.919 32.586H191.633V42H189.653V34.332H186.665L186.629 35.61C186.581 36.87 186.467 37.92 186.287 38.76C186.107 39.588 185.855 40.248 185.531 40.74C185.219 41.22 184.823 41.568 184.343 41.784C183.875 41.988 183.329 42.09 182.705 42.09ZM194.008 42V32.586H195.988V35.682H198.238C199.354 35.682 200.2 35.964 200.776 36.528C201.364 37.092 201.658 37.836 201.658 38.76C201.658 39.384 201.532 39.942 201.28 40.434C201.028 40.926 200.656 41.31 200.164 41.586C199.684 41.862 199.084 42 198.364 42H194.008ZM195.988 40.47H198.058C198.454 40.47 198.772 40.398 199.012 40.254C199.252 40.098 199.432 39.894 199.552 39.642C199.672 39.378 199.732 39.096 199.732 38.796C199.732 38.496 199.678 38.226 199.57 37.986C199.462 37.734 199.282 37.536 199.03 37.392C198.79 37.236 198.46 37.158 198.04 37.158H195.988V40.47ZM205.504 42V34.332H202.39V32.586H210.616V34.332H207.484V42H205.504ZM211.395 39.246C211.395 38.646 211.563 38.124 211.899 37.68C212.247 37.224 212.721 36.876 213.321 36.636C213.921 36.384 214.617 36.258 215.409 36.258C215.829 36.258 216.255 36.288 216.687 36.348C217.131 36.408 217.521 36.504 217.857 36.636V36.042C217.857 35.382 217.659 34.866 217.263 34.494C216.867 34.122 216.297 33.936 215.553 33.936C215.025 33.936 214.527 34.032 214.059 34.224C213.591 34.404 213.093 34.662 212.565 34.998L211.899 33.666C212.523 33.246 213.147 32.934 213.771 32.73C214.407 32.526 215.073 32.424 215.769 32.424C217.029 32.424 218.019 32.76 218.739 33.432C219.471 34.092 219.837 35.034 219.837 36.258V39.768C219.837 39.996 219.873 40.158 219.945 40.254C220.029 40.35 220.167 40.404 220.359 40.416V42C220.179 42.036 220.017 42.06 219.873 42.072C219.729 42.084 219.609 42.09 219.513 42.09C219.093 42.09 218.775 41.988 218.559 41.784C218.343 41.58 218.217 41.34 218.181 41.064L218.127 40.524C217.719 41.052 217.197 41.46 216.561 41.748C215.925 42.036 215.283 42.18 214.635 42.18C214.011 42.18 213.453 42.054 212.961 41.802C212.469 41.538 212.085 41.184 211.809 40.74C211.533 40.296 211.395 39.798 211.395 39.246ZM217.389 39.822C217.533 39.666 217.647 39.51 217.731 39.354C217.815 39.198 217.857 39.06 217.857 38.94V37.86C217.521 37.728 217.167 37.632 216.795 37.572C216.423 37.5 216.057 37.464 215.697 37.464C214.977 37.464 214.389 37.608 213.933 37.896C213.489 38.184 213.267 38.58 213.267 39.084C213.267 39.36 213.339 39.624 213.483 39.876C213.639 40.128 213.855 40.332 214.131 40.488C214.419 40.644 214.773 40.722 215.193 40.722C215.625 40.722 216.039 40.638 216.435 40.47C216.831 40.302 217.149 40.086 217.389 39.822ZM229.619 44.25V42H222.239V32.586H224.219V40.272H228.071V32.586H230.051V40.272H231.365V44.25H229.619ZM233.032 42V32.604H235.012V39.354L239.782 32.586H241.582V42H239.602V35.394L234.886 42H233.032ZM243.354 42L245.874 38.274C245.286 38.13 244.818 37.83 244.47 37.374C244.122 36.918 243.948 36.306 243.948 35.538C243.948 34.95 244.08 34.434 244.344 33.99C244.62 33.546 245.004 33.198 245.496 32.946C245.988 32.694 246.558 32.568 247.206 32.568H251.346V42H249.366V38.598H247.818L245.514 42H243.354ZM247.404 37.158H249.366V34.098H247.53C247.026 34.098 246.624 34.236 246.324 34.512C246.036 34.788 245.892 35.148 245.892 35.592C245.892 36.036 246.018 36.408 246.27 36.708C246.534 37.008 246.912 37.158 247.404 37.158Z" fill="white"/>
<path d="M367 41.2935V57.952H350.373M366.962 58L347 38" stroke="white" stroke-width="2"/>
</svg>
