<svg width="170.000000" height="34.000000" viewBox="0 0 170 34" fill="none" xmlns="http://www.w3.org/2000/svg" xmlns:xlink="http://www.w3.org/1999/xlink">
	<desc>
			Created with Pixso.
	</desc>
	<defs/>
	<path id="Alex. Shevtsov" d="M64.44 22.88C63.42 22.13 62.91 21.07 62.9 19.69L62.9 19.41L65.55 19.41L65.55 19.64Q65.56 20.49 65.97 21.03Q66.12 21.22 66.32 21.37C66.83 21.75 67.54 21.94 68.46 21.94C69.38 21.94 70.09 21.76 70.58 21.39C71.06 21.02 71.31 20.53 71.31 19.91C71.31 19.32 71.07 18.85 70.6 18.52Q69.91 18.01 67.72 17.43Q65.37 16.79 64.26 15.82Q63.98 15.57 63.77 15.27Q63.15 14.39 63.15 13.09C63.15 11.87 63.62 10.88 64.54 10.12C65.47 9.37 66.75 9 68.37 9C69.97 9 71.25 9.4 72.21 10.2C73.17 11.01 73.65 12.02 73.66 13.23L73.66 13.48L71.03 13.48L71.03 13.28C71.03 12.61 70.81 12.07 70.37 11.67C69.93 11.27 69.26 11.07 68.38 11.07C67.49 11.07 66.84 11.23 66.42 11.56Q66.17 11.76 66.02 12.02Q65.79 12.4 65.79 12.92C65.79 13.45 66.02 13.87 66.46 14.18C66.91 14.47 67.86 14.82 69.32 15.22Q71.64 15.84 72.79 16.85C73.55 17.53 73.94 18.49 73.95 19.74C73.95 21.06 73.45 22.1 72.46 22.86C71.47 23.62 70.14 24 68.47 24C66.82 24 65.47 23.62 64.44 22.88ZM130.2 22.88C129.18 22.13 128.67 21.07 128.66 19.69L128.66 19.41L131.31 19.41L131.31 19.64Q131.32 20.49 131.73 21.03Q131.88 21.22 132.08 21.37C132.59 21.75 133.3 21.94 134.22 21.94C135.14 21.94 135.85 21.76 136.34 21.39C136.82 21.02 137.07 20.53 137.07 19.91C137.07 19.32 136.83 18.85 136.36 18.52C135.9 18.18 134.94 17.82 133.48 17.43C131.92 17 130.76 16.47 130.02 15.82C129.28 15.17 128.91 14.26 128.91 13.09C128.91 11.87 129.38 10.88 130.3 10.12C131.23 9.37 132.51 9 134.13 9Q136.46 9 137.88 10.13Q137.93 10.17 137.97 10.2C138.93 11.01 139.41 12.02 139.42 13.23L139.42 13.48L136.8 13.48L136.8 13.28Q136.8 12.61 136.5 12.12Q136.35 11.87 136.13 11.67C135.69 11.27 135.02 11.07 134.14 11.07C133.25 11.07 132.6 11.23 132.18 11.56C131.76 11.89 131.55 12.34 131.55 12.92Q131.55 13.32 131.72 13.63Q131.88 13.95 132.22 14.18C132.67 14.47 133.62 14.82 135.08 15.22Q137.4 15.84 138.55 16.85C139.31 17.53 139.7 18.49 139.71 19.74Q139.71 20.86 139.23 21.71Q138.87 22.36 138.22 22.86C137.23 23.62 135.9 24 134.23 24C132.58 24 131.23 23.62 130.2 22.88ZM143.52 22.19C142.34 20.99 141.74 19.23 141.74 16.9L141.74 16.08C141.74 13.76 142.34 12 143.52 10.8C144.72 9.6 146.25 9 148.12 9C149.98 9 151.51 9.6 152.7 10.8Q152.77 10.86 152.83 10.93Q154.5 12.73 154.5 16.08L154.5 16.9Q154.5 20.27 152.82 22.07L152.82 22.08Q152.76 22.13 152.7 22.19C151.51 23.39 149.98 24 148.12 24C146.25 24 144.72 23.39 143.52 22.19ZM2.52 23.71L0 23.71L5.43 9.21L8.14 9.21L13.62 23.71L10.81 23.71L9.6 20.34L3.73 20.34L2.52 23.71ZM24.54 23.71L15.37 23.71L15.37 9.28L18.02 9.28L18.02 21.62L24.54 21.62L24.54 23.71ZM36.44 23.71L26.8 23.71L26.8 9.28L36.33 9.28L36.33 11.37L29.42 11.37L29.42 15.28L35.41 15.28L35.41 17.31L29.42 17.31L29.42 21.64L36.44 21.64L36.44 23.71ZM40.24 23.71L37.5 23.71L42.23 16.36L37.71 9.28L40.75 9.29L43.87 14.37L46.94 9.28L49.64 9.28L45.19 16.37L49.97 23.71L46.9 23.71L43.56 18.36L40.24 23.71ZM79.17 23.71L76.52 23.71L76.52 9.28L79.17 9.28L79.17 15.22L85.5 15.22L85.5 9.28L88.14 9.28L88.14 23.71L85.5 23.71L85.5 17.33L79.17 17.33L79.17 23.71ZM101.19 23.71L91.55 23.71L91.55 9.28L101.08 9.28L101.08 11.37L94.17 11.37L94.17 15.28L100.17 15.28L100.17 17.31L94.17 17.31L94.17 21.64L101.19 21.64L101.19 23.71ZM107.37 23.78L102.04 9.28L104.89 9.28L108.46 19.4C108.53 19.6 108.59 19.8 108.64 20.02C108.7 20.23 108.75 20.45 108.8 20.68L108.88 20.68C108.92 20.45 108.97 20.23 109.02 20.01C109.08 19.79 109.15 19.59 109.21 19.4L112.85 9.28L115.43 9.28L110.11 23.78L107.37 23.78ZM120.36 11.37L115.92 11.37L115.92 9.28L127.45 9.28L127.45 11.37L123.01 11.37L123.01 23.71L120.36 23.71L120.36 11.37ZM160.94 23.78L155.61 9.28L158.45 9.28L162.02 19.4C162.09 19.6 162.16 19.8 162.21 20.02C162.27 20.23 162.32 20.45 162.37 20.68L162.44 20.68C162.48 20.45 162.53 20.23 162.59 20.01C162.65 19.79 162.71 19.59 162.78 19.4L166.41 9.28L169 9.28L163.67 23.78L160.94 23.78ZM144.46 15.85L144.46 17.14Q144.46 19.53 145.46 20.73C146.12 21.52 147.01 21.91 148.12 21.91C149.23 21.91 150.12 21.52 150.79 20.73Q151.8 19.53 151.8 17.15L151.8 15.85Q151.8 13.46 150.79 12.27C150.12 11.48 149.23 11.09 148.12 11.09C147 11.09 146.11 11.48 145.45 12.27C144.79 13.07 144.46 14.26 144.46 15.85ZM6.25 13.3L4.45 18.34L8.88 18.34L7.07 13.3C6.99 13.07 6.92 12.84 6.86 12.62C6.8 12.4 6.75 12.19 6.7 11.98L6.62 11.98C6.57 12.19 6.52 12.4 6.46 12.62C6.41 12.84 6.34 13.07 6.25 13.3ZM52.19 23.46C51.91 23.16 51.77 22.79 51.77 22.35C51.77 21.91 51.91 21.54 52.19 21.24C52.48 20.93 52.89 20.78 53.41 20.78C53.94 20.78 54.35 20.93 54.63 21.24C54.91 21.54 55.05 21.91 55.05 22.35C55.05 22.79 54.91 23.16 54.63 23.46C54.35 23.76 53.94 23.92 53.41 23.92C52.89 23.92 52.48 23.76 52.19 23.46Z" fill="#FFFFFF" fill-opacity="1.000000" fill-rule="evenodd"/>
	<path id="Line 160 (Stroke)" d="M169.16 34L0.16 34L0.16 33L169.16 33L169.16 34Z" fill="#FFFFFF" fill-opacity="1.000000" fill-rule="evenodd"/>
	<path id="Line 161 (Stroke)" d="M169.16 1L0.16 1L0.16 0L169.16 0L169.16 1Z" fill="#FFFFFF" fill-opacity="1.000000" fill-rule="evenodd"/>
</svg>
