<svg width="197.000000" height="137.000000" viewBox="0 0 197 137" fill="none" xmlns="http://www.w3.org/2000/svg" xmlns:xlink="http://www.w3.org/1999/xlink">
	<desc>
			Created with Pixso.
	</desc>
	<defs/>
	<path id="130+" d="M71.54 42.53Q73.56 43.4 75.95 43.4Q78.3 43.4 80.3 42.57Q81.17 42.21 81.97 41.7Q82.26 41.51 82.54 41.3Q84.8 39.64 86.15 36.74Q87.67 33.47 87.67 28.99Q87.67 24.52 86.15 21.26Q84.8 18.36 82.54 16.69Q82.26 16.48 81.97 16.3Q81.17 15.78 80.3 15.43Q78.3 14.6 75.95 14.6Q73.56 14.6 71.54 15.46Q70.72 15.81 69.96 16.3Q69.76 16.43 69.56 16.56Q67.2 18.24 65.8 21.26Q64.27 24.52 64.27 28.99Q64.27 33.47 65.8 36.74Q67.2 39.75 69.56 41.43Q69.76 41.57 69.96 41.7Q70.72 42.19 71.54 42.53ZM35.43 43L35.43 15L24.32 15L24.32 19.35L30.24 19.35L30.24 43L35.43 43ZM58.83 29.2Q56.79 27.04 52.92 26.56L59.71 18.47L59.71 15L40.63 15L40.63 19.35L53.36 19.35L47 26.91L47 30.48L49.56 30.48Q52.63 30.48 54.13 31.58Q54.78 32.05 55.15 32.69Q55.63 33.53 55.63 34.64Q55.63 35.63 55.22 36.42Q54.83 37.18 54.05 37.74Q52.48 38.87 49.71 38.87Q48.48 38.87 47.29 38.67Q46.24 38.48 45.21 38.14Q43.03 37.4 41.51 36.11L39.27 40.15Q41.24 41.68 44.01 42.54Q44.51 42.69 45.01 42.82Q47.33 43.4 49.79 43.4Q53.4 43.4 55.9 42.21Q58.34 41.06 59.58 39.13Q59.61 39.09 59.64 39.04Q60.11 38.28 60.4 37.45Q60.88 36.11 60.88 34.6Q60.88 32.46 59.99 30.8Q59.53 29.93 58.83 29.2ZM78.58 38.28Q77.42 38.87 75.95 38.87Q74.55 38.87 73.43 38.32Q72.17 37.7 71.26 36.39Q69.52 33.91 69.52 28.99Q69.52 24.08 71.26 21.6Q72.17 20.29 73.43 19.67Q74.55 19.12 75.95 19.12Q77.42 19.12 78.58 19.71Q79.8 20.33 80.69 21.6Q82.44 24.08 82.44 28.99Q82.44 33.91 80.69 36.39Q79.8 37.66 78.58 38.28ZM103.6 30.99L110.67 30.99L110.67 27L103.6 27L103.6 20L99.31 20L99.31 27L92.23 27L92.23 30.99L99.31 30.99L99.31 38L103.6 38L103.6 30.99Z" fill="#FFFFFF" fill-opacity="1.000000" fill-rule="evenodd"/>
	<line id="Line 168" x1="0.500000" y1="4.000000" x2="0.500000" y2="137.000000" stroke="#FFFFFF" stroke-opacity="0.610000" stroke-width="1.000000"/>
	<path id="техник для достижения целей" d="M41.76 100.47C42.27 100.69 42.82 100.8 43.42 100.8C43.96 100.8 44.47 100.72 44.94 100.55C45.42 100.37 45.84 100.12 46.19 99.8Q46.72 99.32 46.97 98.72L46.03 98.47Q45.98 98.58 45.92 98.68Q45.62 99.21 45 99.56C44.52 99.83 44.01 99.97 43.47 99.97C42.93 99.97 42.44 99.84 41.98 99.57Q41.73 99.42 41.52 99.23Q41.15 98.9 40.88 98.47C40.6 98 40.43 97.46 40.38 96.87L47.52 96.87C47.53 96.82 47.53 96.77 47.53 96.69L47.53 96.44Q47.53 95.63 47.27 94.91Q47.16 94.61 47 94.32Q46.72 93.8 46.33 93.39Q45.98 93.03 45.55 92.76Q45.43 92.68 45.31 92.61Q44.48 92.16 43.4 92.16Q42.52 92.16 41.77 92.49Q41.51 92.6 41.26 92.76C40.63 93.14 40.13 93.66 39.77 94.31C39.42 94.96 39.24 95.67 39.24 96.45C39.24 97.05 39.35 97.61 39.55 98.13C39.76 98.65 40.05 99.12 40.43 99.52C40.8 99.92 41.24 100.23 41.76 100.47ZM108.74 97.24L106.26 100.64L107.47 100.64L109.83 97.41L111.68 97.41L111.68 100.64L112.77 100.64L112.77 92.29L109.59 92.29C109.03 92.29 108.55 92.4 108.13 92.63C107.73 92.85 107.41 93.15 107.19 93.52Q107.13 93.62 107.08 93.72Q106.85 94.2 106.85 94.8C106.85 95.52 107.02 96.08 107.36 96.5C107.71 96.9 108.17 97.15 108.74 97.24ZM34.28 93.28L34.28 100.64L35.36 100.64L35.36 93.28L38.34 93.28L38.34 92.31L31.3 92.31L31.3 93.28L34.28 93.28ZM51.91 95.57L49.47 92.31L48.25 92.31L51.4 96.5L48.25 100.64L49.48 100.64L51.91 97.4L52.04 97.17L52.17 97.4L54.6 100.64L55.83 100.64L52.67 96.5L55.83 92.31L54.6 92.31L52.17 95.57L52.04 95.81L51.91 95.57ZM57.26 92.31L57.26 100.64L58.35 100.64L58.35 96.87L63.11 96.87L63.11 100.64L64.2 100.64L64.2 92.31L63.11 92.31L63.11 95.89L58.35 95.89L58.35 92.31L57.26 92.31ZM66.59 92.32L66.59 100.64L67.64 100.64L72.63 93.91L72.63 100.64L73.72 100.64L73.72 92.31L72.75 92.31L67.67 99.17L67.67 92.32L66.59 92.32ZM76.09 92.31L76.09 100.64L77.17 100.64L77.17 96.88L78.42 96.88L81.59 100.64L82.87 100.64L79.29 96.36L82.47 92.31L81.22 92.31L78.42 95.88L77.17 95.88L77.17 92.31L76.09 92.31ZM87.56 99.67L87.56 102.58L88.52 102.58L88.52 100.64L95.15 100.64L95.15 102.58L96.12 102.58L96.12 99.67L95 99.67L95 92.31L89.58 92.31L89.5 94.63C89.47 95.63 89.4 96.46 89.31 97.12C89.21 97.77 89.08 98.29 88.92 98.66C88.76 99.03 88.58 99.29 88.38 99.44C88.18 99.59 87.95 99.67 87.71 99.67L87.56 99.67ZM96.97 99.7L96.97 100.69Q97.68 100.69 98.22 100.4C98.58 100.21 98.89 99.89 99.13 99.44Q99.52 98.77 99.73 97.62Q99.93 96.45 100 94.72L100.03 93.28L103.39 93.28L103.39 100.64L104.48 100.64L104.48 92.31L99.07 92.31L98.97 94.63C98.94 95.64 98.87 96.48 98.77 97.14C98.66 97.79 98.51 98.3 98.33 98.68Q98.08 99.24 97.74 99.48C97.52 99.62 97.26 99.7 96.97 99.7ZM46.51 96.08L40.35 96.08C40.39 95.49 40.55 94.96 40.83 94.5Q41.16 93.96 41.62 93.61Q41.77 93.5 41.93 93.41C42.38 93.14 42.88 93.01 43.42 93.01Q43.95 93.01 44.42 93.18Q44.67 93.27 44.91 93.41C45.37 93.67 45.73 94.02 46.01 94.48C46.3 94.94 46.47 95.48 46.51 96.08ZM111.68 96.58L109.57 96.58Q108.94 96.58 108.55 96.27Q108.43 96.18 108.34 96.07C108.07 95.73 107.94 95.31 107.94 94.82C107.94 94.34 108.1 93.94 108.43 93.64C108.77 93.32 109.21 93.16 109.76 93.16L111.68 93.16L111.68 96.58ZM93.92 99.67L89.36 99.67C89.58 99.48 89.77 99.19 89.92 98.8C90.08 98.41 90.2 97.88 90.3 97.22C90.41 96.55 90.48 95.72 90.51 94.72L90.56 93.28L93.92 93.28L93.92 99.67ZM169.15 110.74C169.54 111.08 170.1 111.25 170.83 111.25C171.54 111.25 172.1 111.08 172.49 110.74C172.88 110.4 173.08 109.97 173.08 109.44L172.3 109.44C172.27 109.78 172.13 110.06 171.9 110.26C171.67 110.46 171.32 110.56 170.83 110.56C170.32 110.56 169.95 110.46 169.71 110.24C169.47 110.03 169.35 109.76 169.35 109.44L168.55 109.44C168.55 109.97 168.75 110.4 169.15 110.74ZM43.54 120.54Q44.23 120.8 45.03 120.8Q45.94 120.8 46.69 120.47C47.2 120.23 47.64 119.92 48 119.52C48.38 119.12 48.67 118.66 48.87 118.15C49.07 117.62 49.17 117.08 49.17 116.5C49.17 115.9 49.07 115.35 48.87 114.84C48.67 114.31 48.38 113.85 48 113.46C47.63 113.05 47.19 112.74 46.69 112.52C46.19 112.28 45.64 112.16 45.04 112.16Q44.31 112.16 43.66 112.4Q43.52 112.45 43.38 112.52C42.88 112.74 42.44 113.05 42.07 113.46C41.69 113.85 41.41 114.31 41.2 114.84C41 115.35 40.9 115.9 40.9 116.5C40.9 117.08 41 117.62 41.2 118.15C41.41 118.66 41.69 119.12 42.05 119.52Q42.26 119.74 42.49 119.92Q42.89 120.24 43.36 120.47Q43.45 120.51 43.54 120.54ZM52.93 120.47C53.44 120.69 54 120.8 54.61 120.8C55.14 120.8 55.64 120.72 56.1 120.55C56.57 120.37 56.97 120.12 57.31 119.81C57.66 119.49 57.91 119.13 58.06 118.74L56.99 118.42C56.91 118.68 56.74 118.92 56.48 119.14C56.23 119.35 55.94 119.52 55.6 119.65C55.27 119.78 54.92 119.84 54.56 119.84Q54.11 119.84 53.7 119.71Q53.36 119.6 53.04 119.4C52.58 119.09 52.21 118.68 51.94 118.16C51.66 117.65 51.52 117.08 51.52 116.45C51.52 115.81 51.65 115.24 51.92 114.74C52.2 114.24 52.57 113.84 53.02 113.56C53.48 113.27 53.99 113.12 54.54 113.12C55.06 113.12 55.52 113.25 55.94 113.49C56.36 113.73 56.69 114.06 56.93 114.48L57.98 114.15C57.7 113.54 57.25 113.06 56.66 112.71C56.06 112.34 55.37 112.16 54.59 112.16Q53.54 112.16 52.69 112.59Q52.55 112.66 52.42 112.74C51.79 113.12 51.3 113.64 50.94 114.29C50.59 114.94 50.42 115.66 50.42 116.45C50.42 117.04 50.52 117.59 50.72 118.12C50.93 118.64 51.23 119.1 51.6 119.51C51.98 119.91 52.43 120.23 52.93 120.47ZM91.46 120.47C91.97 120.69 92.53 120.8 93.12 120.8C93.67 120.8 94.17 120.72 94.64 120.55C95.12 120.37 95.54 120.12 95.89 119.8C96.24 119.48 96.5 119.12 96.68 118.72L95.73 118.47C95.54 118.92 95.2 119.28 94.71 119.56C94.23 119.83 93.72 119.97 93.17 119.97C92.64 119.97 92.14 119.84 91.68 119.57Q91.44 119.42 91.22 119.23Q90.85 118.9 90.58 118.47C90.3 118 90.14 117.46 90.08 116.87L97.22 116.87Q97.24 116.8 97.24 116.69L97.24 116.44C97.24 115.67 97.06 114.96 96.71 114.32C96.36 113.67 95.87 113.15 95.25 112.76C94.64 112.36 93.93 112.16 93.11 112.16C92.31 112.16 91.59 112.36 90.96 112.76C90.33 113.14 89.84 113.66 89.48 114.31C89.12 114.96 88.95 115.67 88.95 116.45C88.95 117.05 89.05 117.61 89.25 118.13C89.46 118.65 89.76 119.12 90.13 119.52C90.5 119.92 90.95 120.23 91.46 120.47ZM141.3 120.47C141.82 120.69 142.37 120.8 142.97 120.8C143.51 120.8 144.02 120.72 144.49 120.55C144.97 120.37 145.38 120.12 145.74 119.8C146.09 119.48 146.35 119.12 146.52 118.72L145.58 118.47C145.38 118.92 145.04 119.28 144.55 119.56C144.07 119.83 143.56 119.97 143.02 119.97C142.48 119.97 141.99 119.84 141.53 119.57C141.08 119.29 140.71 118.93 140.42 118.47C140.15 118 139.98 117.46 139.93 116.87L147.06 116.87Q147.08 116.8 147.08 116.69L147.08 116.44C147.08 115.67 146.9 114.96 146.55 114.32C146.2 113.67 145.71 113.15 145.1 112.76C144.49 112.36 143.77 112.16 142.95 112.16C142.15 112.16 141.44 112.36 140.81 112.76C140.18 113.14 139.68 113.66 139.32 114.31C138.97 114.96 138.79 115.67 138.79 116.45C138.79 117.05 138.89 117.61 139.1 118.13C139.31 118.65 139.6 119.12 139.98 119.52C140.35 119.92 140.79 120.23 141.3 120.47ZM159.8 120.47C160.32 120.69 160.87 120.8 161.47 120.8C162.01 120.8 162.52 120.72 162.99 120.55C163.47 120.37 163.88 120.12 164.24 119.8Q164.76 119.32 165.02 118.72L164.08 118.47C163.88 118.92 163.54 119.28 163.05 119.56C162.57 119.83 162.06 119.97 161.52 119.97C160.98 119.97 160.49 119.84 160.03 119.57C159.58 119.29 159.21 118.93 158.92 118.47C158.65 118 158.48 117.46 158.43 116.87L165.56 116.87C165.57 116.82 165.58 116.77 165.58 116.69L165.58 116.44C165.58 115.67 165.4 114.96 165.05 114.32Q164.77 113.8 164.38 113.39Q164.03 113.03 163.6 112.76C162.99 112.36 162.27 112.16 161.45 112.16C160.65 112.16 159.94 112.36 159.31 112.76C158.68 113.14 158.18 113.66 157.82 114.31C157.47 114.96 157.29 115.67 157.29 116.45C157.29 117.05 157.39 117.61 157.6 118.13C157.81 118.65 158.1 119.12 158.48 119.52C158.85 119.92 159.29 120.23 159.8 120.47ZM119.6 117.24L117.12 120.64L118.33 120.64L120.69 117.41L122.54 117.41L122.54 120.64L123.63 120.64L123.63 112.29L120.45 112.29C119.89 112.29 119.41 112.4 118.99 112.63C118.59 112.85 118.27 113.15 118.05 113.52C117.82 113.9 117.71 114.32 117.71 114.8C117.71 115.52 117.88 116.08 118.22 116.5C118.57 116.9 119.03 117.15 119.6 117.24ZM31.27 119.67L31.27 122.58L32.23 122.58L32.23 120.64L38.85 120.64L38.85 122.58L39.83 122.58L39.83 119.67L38.71 119.67L38.71 112.31L33.28 112.31L33.2 114.63C33.17 115.63 33.11 116.46 33.01 117.12C32.91 117.77 32.79 118.29 32.63 118.66Q32.39 119.22 32.08 119.44C31.88 119.59 31.66 119.67 31.41 119.67L31.27 119.67ZM61.85 113.28L61.85 120.64L62.94 120.64L62.94 113.28L65.92 113.28L65.92 112.31L58.88 112.31L58.88 113.28L61.85 113.28ZM67.38 112.32L67.38 120.64L68.44 120.64L73.43 113.91L73.43 120.64L74.52 120.64L74.52 112.31L73.54 112.31L68.47 119.17L68.47 112.32L67.38 112.32ZM79.43 116.36L76.31 120.64L77.57 120.64L80.35 116.87L81.44 116.87L81.44 120.64L82.56 120.64L82.56 116.87L83.68 116.87L86.45 120.64L87.71 120.64L84.56 116.36L87.39 112.31L86.15 112.31L83.68 115.91L82.56 115.91L82.56 112.31L81.44 112.31L81.44 115.91L80.35 115.91L77.84 112.31L76.61 112.31L79.43 116.36ZM98.9 112.31L98.9 120.64L99.99 120.64L99.99 116.87L104.75 116.87L104.75 120.64L105.84 120.64L105.84 112.31L104.75 112.31L104.75 115.89L99.99 115.89L99.99 112.31L98.9 112.31ZM108.23 112.32L108.23 120.64L109.28 120.64L114.27 113.91L114.27 120.64L115.36 120.64L115.36 112.31L114.39 112.31L109.31 119.17L109.31 112.32L108.23 112.32ZM136.74 120.64L136.74 122.58L137.72 122.58L137.72 119.68L136.58 119.68L136.58 112.31L135.49 112.31L135.49 119.68L131.17 119.68L131.17 112.31L130.09 112.31L130.09 120.64L136.74 120.64ZM147.96 119.7L147.96 120.69Q148.66 120.69 149.21 120.4C149.57 120.21 149.87 119.89 150.12 119.44C150.37 119 150.57 118.39 150.71 117.62C150.85 116.84 150.94 115.88 150.98 114.72L151.01 113.28L154.37 113.28L154.37 120.64L155.46 120.64L155.46 112.31L150.05 112.31L149.96 114.63C149.92 115.64 149.86 116.48 149.75 117.14C149.64 117.79 149.5 118.3 149.32 118.68Q149.06 119.24 148.73 119.48C148.5 119.62 148.25 119.7 147.96 119.7ZM167.24 112.32L167.24 120.64L168.3 120.64L173.29 113.91L173.29 120.64L174.38 120.64L174.38 112.31L173.4 112.31L168.33 119.17L168.33 112.32L167.24 112.32ZM96.21 116.08L90.05 116.08Q90.11 115.21 90.51 114.53Q90.52 114.51 90.53 114.5C90.82 114.03 91.19 113.67 91.64 113.41C92.08 113.14 92.58 113.01 93.12 113.01C93.67 113.01 94.16 113.14 94.61 113.41C95.07 113.67 95.44 114.02 95.72 114.48C96 114.94 96.17 115.48 96.21 116.08ZM146.06 116.08L139.89 116.08C139.94 115.49 140.1 114.96 140.38 114.5C140.66 114.03 141.03 113.67 141.48 113.41C141.93 113.14 142.42 113.01 142.97 113.01C143.51 113.01 144.01 113.14 144.46 113.41C144.91 113.67 145.28 114.02 145.56 114.48C145.85 114.94 146.01 115.48 146.06 116.08ZM164.56 116.08L158.39 116.08C158.44 115.49 158.6 114.96 158.88 114.5C159.16 114.03 159.53 113.67 159.98 113.41Q160.21 113.27 160.47 113.18Q160.94 113.01 161.47 113.01C162.01 113.01 162.51 113.14 162.96 113.41C163.41 113.67 163.78 114.02 164.06 114.48C164.35 114.94 164.51 115.48 164.56 116.08ZM42.4 118.21C42.14 117.7 42 117.13 42 116.52C42 115.89 42.14 115.32 42.42 114.82C42.7 114.31 43.06 113.9 43.51 113.59Q43.85 113.36 44.22 113.24Q44.61 113.12 45.03 113.12Q45.48 113.12 45.89 113.25Q46.23 113.37 46.55 113.57C47.01 113.87 47.37 114.28 47.65 114.79C47.93 115.3 48.07 115.86 48.07 116.48C48.07 117.09 47.93 117.66 47.65 118.18C47.37 118.69 47.01 119.1 46.55 119.4Q46.23 119.6 45.89 119.71Q45.48 119.84 45.03 119.84C44.47 119.84 43.97 119.7 43.51 119.41C43.05 119.11 42.68 118.71 42.4 118.21ZM122.54 116.58L120.43 116.58Q119.8 116.58 119.41 116.27Q119.29 116.18 119.2 116.07C118.93 115.73 118.8 115.31 118.8 114.82C118.8 114.34 118.96 113.94 119.29 113.64C119.63 113.32 120.07 113.16 120.62 113.16L122.54 113.16L122.54 116.58ZM37.62 119.67L33.06 119.67C33.28 119.48 33.47 119.19 33.62 118.8Q33.86 118.21 34 117.22C34.11 116.55 34.18 115.72 34.21 114.72L34.26 113.28L37.62 113.28L37.62 119.67Z" fill="#FFFFFF" fill-opacity="0.500000" fill-rule="evenodd"/>
</svg>
