<svg width="126.000000" height="30.000000" viewBox="0 0 126 30" fill="none" xmlns="http://www.w3.org/2000/svg" xmlns:xlink="http://www.w3.org/1999/xlink">
	<desc>
			Created with Pixso.
	</desc>
	<defs/>
	<rect id="Rectangle 288" x="0.500000" y="-0.220947" width="125.000000" height="29.279070" stroke="#FFFFFF" stroke-opacity="1.000000" stroke-width="1.000000"/>
	<line id="Line 168" x1="98.034180" y1="-0.720947" x2="98.034180" y2="29.000000" stroke="#FFFFFF" stroke-opacity="1.000000" stroke-width="1.000000"/>
	<path id="Заказать звонок" d="M9.56 17.69C10 17.92 10.49 18.03 11.03 18.03Q11.77 18.03 12.33 17.8C12.71 17.64 13.01 17.41 13.23 17.11Q13.3 17.02 13.34 16.93Q13.56 16.53 13.56 16.01Q13.56 15.56 13.39 15.19Q13.32 15.04 13.22 14.91C13 14.6 12.69 14.38 12.28 14.27Q12.68 14.1 12.92 13.8Q12.98 13.71 13.03 13.62C13.2 13.33 13.28 13.01 13.28 12.68Q13.28 12.09 13.02 11.68Q13.01 11.67 13 11.66C12.82 11.37 12.55 11.16 12.21 11.01C11.88 10.86 11.48 10.78 11.02 10.78Q10.16 10.78 9.57 11.12Q9.34 11.25 9.15 11.43Q8.85 11.69 8.62 12.04L9.44 12.61C9.59 12.36 9.79 12.16 10.04 12.01C10.3 11.86 10.61 11.79 10.97 11.79Q11.36 11.79 11.63 11.93C11.81 12.02 11.95 12.14 12.04 12.3C12.14 12.45 12.19 12.63 12.19 12.84Q12.19 13.1 12.09 13.32Q12.08 13.35 12.06 13.38C11.98 13.53 11.85 13.66 11.68 13.75C11.52 13.84 11.33 13.88 11.09 13.88L10.3 13.88L10.3 14.75L11.09 14.75Q11.52 14.75 11.82 14.9Q12.03 14.99 12.16 15.15Q12.23 15.22 12.27 15.31C12.37 15.48 12.42 15.68 12.42 15.91C12.42 16.26 12.3 16.55 12.05 16.76C11.81 16.97 11.47 17.08 11.01 17.08Q10.47 17.08 10.05 16.86C9.78 16.71 9.56 16.49 9.4 16.22L8.54 16.75Q8.68 16.96 8.85 17.15Q9.15 17.47 9.56 17.69ZM14.37 15.8Q14.24 16.08 14.24 16.42Q14.24 16.73 14.35 17Q14.4 17.13 14.47 17.25C14.63 17.5 14.84 17.69 15.11 17.84C15.39 17.98 15.7 18.05 16.04 18.05Q16.09 18.05 16.14 18.05Q16.63 18.03 17.11 17.81C17.47 17.65 17.76 17.42 17.98 17.13L18.01 17.43C18.03 17.58 18.1 17.72 18.22 17.83C18.34 17.94 18.52 18 18.75 18C18.81 18 18.87 18 18.95 17.99Q19.07 17.98 19.22 17.95L19.22 17.07C19.12 17.06 19.04 17.03 18.99 16.98C18.95 16.93 18.93 16.84 18.93 16.71L18.93 14.76Q18.93 13.93 18.54 13.42Q18.44 13.29 18.32 13.19Q18.27 13.14 18.22 13.1Q17.64 12.63 16.67 12.63Q16.14 12.63 15.65 12.77Q15.6 12.79 15.56 12.8C15.22 12.91 14.87 13.09 14.52 13.32L14.89 14.06Q15.33 13.78 15.72 13.63C15.98 13.52 16.26 13.47 16.55 13.47C16.97 13.47 17.28 13.57 17.5 13.78C17.72 13.99 17.83 14.27 17.83 14.64L17.83 14.97C17.65 14.9 17.43 14.84 17.18 14.81C16.94 14.78 16.71 14.76 16.47 14.76Q15.81 14.76 15.31 14.97C14.98 15.1 14.72 15.3 14.52 15.55Q14.43 15.67 14.37 15.8ZM25.58 15.55C25.39 15.8 25.3 16.09 25.3 16.42Q25.3 16.73 25.4 17Q25.45 17.13 25.53 17.25C25.68 17.5 25.9 17.69 26.17 17.84C26.44 17.98 26.75 18.05 27.1 18.05Q27.15 18.05 27.2 18.05Q27.69 18.03 28.17 17.81C28.52 17.65 28.81 17.42 29.04 17.13L29.07 17.43C29.09 17.58 29.16 17.72 29.28 17.83C29.4 17.94 29.58 18 29.81 18C29.86 18 29.93 18 30.01 17.99Q30.13 17.98 30.28 17.95L30.28 17.07C30.17 17.06 30.1 17.03 30.05 16.98C30.01 16.93 29.99 16.84 29.99 16.71L29.99 14.76C29.99 14.08 29.79 13.56 29.38 13.19C28.98 12.82 28.43 12.63 27.73 12.63C27.34 12.63 26.97 12.69 26.62 12.8C26.27 12.91 25.93 13.09 25.58 13.32L25.95 14.06Q26.39 13.78 26.78 13.63Q26.86 13.59 26.95 13.57Q27.26 13.47 27.61 13.47C28.02 13.47 28.34 13.57 28.56 13.78C28.78 13.99 28.89 14.27 28.89 14.64L28.89 14.97C28.7 14.9 28.49 14.84 28.24 14.81C28 14.78 27.76 14.76 27.53 14.76C27.09 14.76 26.7 14.83 26.37 14.97C26.04 15.1 25.77 15.3 25.58 15.55ZM36.06 15.55C35.87 15.8 35.78 16.09 35.78 16.42Q35.78 16.73 35.88 17Q35.93 17.13 36.01 17.25C36.16 17.5 36.37 17.69 36.65 17.84C36.92 17.98 37.23 18.05 37.58 18.05Q37.63 18.05 37.68 18.05Q38.17 18.03 38.65 17.81C39 17.65 39.29 17.42 39.52 17.13L39.55 17.43C39.57 17.58 39.64 17.72 39.76 17.83C39.88 17.94 40.05 18 40.29 18C40.34 18 40.41 18 40.49 17.99Q40.61 17.98 40.76 17.95L40.76 17.07C40.65 17.06 40.57 17.03 40.53 16.98C40.49 16.93 40.47 16.84 40.47 16.71L40.47 14.76C40.47 14.08 40.26 13.56 39.86 13.19C39.46 12.82 38.91 12.63 38.21 12.63C37.82 12.63 37.45 12.69 37.1 12.8C36.75 12.91 36.4 13.09 36.06 13.32L36.43 14.06Q36.87 13.78 37.26 13.63Q37.34 13.59 37.43 13.57Q37.74 13.47 38.09 13.47C38.5 13.47 38.82 13.57 39.04 13.78C39.26 13.99 39.37 14.27 39.37 14.64L39.37 14.97C39.18 14.9 38.96 14.84 38.72 14.81C38.48 14.78 38.24 14.76 38.01 14.76C37.57 14.76 37.18 14.83 36.85 14.97C36.51 15.1 36.25 15.3 36.06 15.55ZM65.88 17.84C66.21 17.98 66.58 18.05 66.99 18.05C67.4 18.05 67.77 17.98 68.09 17.84C68.43 17.69 68.71 17.49 68.94 17.24Q69.16 17.01 69.31 16.75Q69.42 16.57 69.49 16.38C69.62 16.05 69.68 15.71 69.68 15.34C69.68 14.97 69.62 14.63 69.49 14.3Q69.38 14 69.2 13.74Q69.08 13.58 68.94 13.44Q68.86 13.35 68.77 13.27Q68.48 13.01 68.09 12.85C67.77 12.7 67.4 12.63 66.99 12.63C66.59 12.63 66.22 12.7 65.88 12.85C65.56 12.99 65.27 13.19 65.03 13.44Q64.93 13.55 64.84 13.66Q64.63 13.95 64.49 14.3C64.37 14.63 64.3 14.97 64.3 15.34C64.3 15.71 64.37 16.05 64.49 16.38Q64.59 16.62 64.72 16.83Q64.86 17.05 65.03 17.24C65.27 17.49 65.56 17.69 65.88 17.84ZM77.86 17.84C78.18 17.98 78.55 18.05 78.97 18.05C79.37 18.05 79.74 17.98 80.07 17.84C80.4 17.69 80.68 17.49 80.92 17.24Q81.13 17.01 81.28 16.75Q81.39 16.57 81.47 16.38C81.59 16.05 81.66 15.71 81.66 15.34C81.66 14.97 81.59 14.63 81.47 14.3Q81.35 14 81.17 13.74Q81.06 13.58 80.92 13.44Q80.83 13.35 80.74 13.27Q80.45 13.01 80.07 12.85C79.74 12.7 79.37 12.63 78.97 12.63C78.56 12.63 78.19 12.7 77.86 12.85Q77.56 12.98 77.31 13.17Q77.15 13.29 77.01 13.44Q76.9 13.55 76.82 13.66Q76.6 13.95 76.47 14.3C76.34 14.63 76.28 14.97 76.28 15.34C76.28 15.71 76.34 16.05 76.47 16.38Q76.56 16.62 76.69 16.83Q76.83 17.05 77.01 17.24C77.25 17.49 77.53 17.69 77.86 17.84ZM31.72 17.74C32.09 17.93 32.54 18.03 33.07 18.03C33.47 18.03 33.83 17.97 34.14 17.85Q34.61 17.67 34.87 17.33C35.05 17.1 35.14 16.82 35.14 16.5C35.14 16.19 35.06 15.92 34.89 15.69Q34.86 15.63 34.81 15.58Q34.58 15.32 34.17 15.2C34.41 15.1 34.59 14.95 34.7 14.74C34.82 14.53 34.87 14.3 34.87 14.06Q34.87 13.66 34.7 13.38Q34.67 13.33 34.63 13.29Q34.61 13.25 34.57 13.21Q34.35 12.95 33.98 12.81C33.71 12.7 33.4 12.64 33.04 12.64C32.6 12.64 32.21 12.73 31.87 12.91C31.54 13.09 31.29 13.34 31.11 13.66L31.94 14.1C32.05 13.91 32.19 13.77 32.35 13.68C32.52 13.58 32.73 13.53 32.99 13.53Q33.44 13.53 33.66 13.72C33.82 13.84 33.89 14 33.89 14.2C33.89 14.33 33.86 14.45 33.8 14.56C33.75 14.66 33.67 14.74 33.57 14.8C33.47 14.86 33.36 14.89 33.22 14.89L32.66 14.89L32.66 15.59L33.2 15.59C33.5 15.6 33.72 15.67 33.88 15.81C34.04 15.94 34.12 16.12 34.12 16.34C34.12 16.58 34.03 16.77 33.83 16.92C33.64 17.07 33.37 17.14 33.01 17.14Q32.57 17.14 32.26 16.98C32.06 16.87 31.9 16.71 31.78 16.52L30.89 16.92Q31 17.12 31.15 17.28Q31.39 17.55 31.72 17.74ZM54.66 17.74C55.03 17.93 55.48 18.03 56.01 18.03Q56.61 18.03 57.08 17.85C57.4 17.73 57.64 17.56 57.81 17.33Q57.89 17.22 57.95 17.1Q58.08 16.83 58.08 16.5C58.08 16.19 58 15.92 57.83 15.69C57.67 15.46 57.43 15.29 57.11 15.2C57.35 15.1 57.53 14.95 57.64 14.74C57.76 14.53 57.81 14.3 57.81 14.06C57.81 13.75 57.73 13.5 57.57 13.29Q57.54 13.25 57.51 13.21Q57.29 12.95 56.92 12.81C56.65 12.7 56.34 12.64 55.98 12.64C55.54 12.64 55.15 12.73 54.81 12.91C54.48 13.09 54.23 13.34 54.05 13.66L54.88 14.1C54.99 13.91 55.13 13.77 55.29 13.68C55.46 13.58 55.67 13.53 55.93 13.53C56.23 13.53 56.46 13.59 56.6 13.72C56.76 13.84 56.83 14 56.83 14.2C56.83 14.33 56.8 14.45 56.74 14.56C56.69 14.66 56.61 14.74 56.51 14.8C56.41 14.86 56.3 14.89 56.16 14.89L55.6 14.89L55.6 15.59L56.14 15.59C56.44 15.6 56.66 15.67 56.82 15.81C56.98 15.94 57.06 16.12 57.06 16.34C57.06 16.58 56.97 16.77 56.77 16.92C56.58 17.07 56.31 17.14 55.95 17.14Q55.51 17.14 55.2 16.98C55 16.87 54.84 16.71 54.72 16.52L53.83 16.92C54.03 17.27 54.3 17.54 54.66 17.74ZM20.27 12.72L20.27 17.95L21.36 17.95L21.36 15.78L21.87 15.78L23.59 17.95L24.86 17.95L22.73 15.25L24.64 12.72L23.42 12.72L21.88 14.79L21.36 14.79L21.36 12.72L20.27 12.72ZM42.98 13.69L42.98 17.95L44.08 17.95L44.08 13.69L45.82 13.69L45.82 12.72L41.25 12.72L41.25 13.69L42.98 13.69ZM46.65 12.72L46.65 17.95L49.07 17.95C49.47 17.95 49.8 17.87 50.07 17.72C50.34 17.57 50.55 17.35 50.69 17.08C50.83 16.81 50.9 16.5 50.9 16.15Q50.9 15.61 50.66 15.22Q50.55 15.05 50.41 14.91C50.09 14.6 49.62 14.44 49 14.44L47.75 14.44L47.75 12.72L46.65 12.72ZM59.1 12.72L59.1 17.95L61.81 17.95C62.17 17.95 62.48 17.9 62.75 17.8C63.02 17.69 63.23 17.54 63.38 17.33C63.52 17.12 63.6 16.86 63.6 16.55C63.6 16.21 63.5 15.93 63.31 15.72C63.12 15.5 62.88 15.35 62.58 15.26C62.84 15.15 63.03 14.98 63.17 14.76C63.3 14.54 63.37 14.29 63.37 14Q63.37 13.76 63.29 13.55Q63.25 13.46 63.21 13.38Q63.19 13.35 63.17 13.31Q63.01 13.07 62.72 12.91C62.5 12.78 62.23 12.72 61.9 12.72L59.1 12.72ZM70.66 12.72L70.66 17.95L71.76 17.95L71.76 15.75L74.19 15.75L74.19 17.95L75.29 17.95L75.29 12.72L74.19 12.72L74.19 14.8L71.76 14.8L71.76 12.72L70.66 12.72ZM82.63 12.72L82.63 17.95L83.72 17.95L83.72 15.78L84.23 15.78L85.95 17.95L87.22 17.95L85.09 15.25L87 12.72L85.78 12.72L84.24 14.79L83.72 14.79L83.72 12.72L82.63 12.72ZM61.62 14.96L60.14 14.96L60.14 13.48L61.64 13.48C61.84 13.48 62.01 13.55 62.14 13.69C62.26 13.83 62.33 14 62.33 14.19C62.33 14.32 62.3 14.45 62.24 14.57C62.18 14.69 62.09 14.79 61.99 14.86Q61.96 14.87 61.93 14.89Q61.79 14.96 61.62 14.96ZM65.64 16.25C65.5 15.98 65.43 15.68 65.43 15.35Q65.43 14.84 65.64 14.45C65.78 14.18 65.97 13.97 66.2 13.81C66.44 13.65 66.7 13.57 66.99 13.57C67.28 13.57 67.54 13.65 67.77 13.81C68.01 13.96 68.2 14.17 68.34 14.44C68.48 14.71 68.55 15.01 68.55 15.34C68.55 15.67 68.48 15.97 68.34 16.24C68.2 16.51 68.01 16.72 67.77 16.88C67.54 17.03 67.28 17.11 66.99 17.11C66.7 17.11 66.44 17.03 66.2 16.88C65.97 16.73 65.78 16.52 65.64 16.25ZM77.62 16.25C77.48 15.98 77.41 15.68 77.41 15.35C77.41 15.01 77.48 14.71 77.62 14.45C77.76 14.18 77.94 13.97 78.18 13.81C78.41 13.65 78.67 13.57 78.97 13.57C79.25 13.57 79.51 13.65 79.75 13.81C79.99 13.96 80.18 14.17 80.32 14.44C80.46 14.71 80.53 15.01 80.53 15.34C80.53 15.67 80.46 15.97 80.32 16.24C80.18 16.51 79.99 16.72 79.75 16.88C79.51 17.03 79.25 17.11 78.97 17.11C78.67 17.11 78.41 17.03 78.18 16.88C77.94 16.73 77.76 16.52 77.62 16.25ZM48.9 17.1L47.75 17.1L47.75 15.26L48.89 15.26C49.12 15.26 49.3 15.3 49.44 15.39C49.58 15.47 49.68 15.58 49.74 15.72C49.8 15.85 49.83 16 49.83 16.17C49.83 16.34 49.79 16.49 49.73 16.64C49.66 16.78 49.56 16.89 49.43 16.98Q49.23 17.1 48.9 17.1ZM17.76 16.48C17.72 16.57 17.65 16.65 17.57 16.74C17.44 16.89 17.26 17.01 17.04 17.1C16.82 17.19 16.59 17.24 16.35 17.24Q16 17.24 15.76 17.11C15.61 17.02 15.49 16.91 15.4 16.77C15.32 16.63 15.28 16.48 15.28 16.33C15.28 16.05 15.41 15.83 15.65 15.67Q16.03 15.43 16.63 15.43C16.83 15.43 17.04 15.45 17.24 15.49Q17.55 15.54 17.83 15.65L17.83 16.25C17.83 16.32 17.81 16.39 17.76 16.48ZM28.82 16.48C28.77 16.57 28.71 16.65 28.63 16.74C28.5 16.89 28.32 17.01 28.1 17.1C27.88 17.19 27.65 17.24 27.41 17.24Q27.06 17.24 26.82 17.11C26.67 17.02 26.55 16.91 26.46 16.77C26.38 16.63 26.34 16.48 26.34 16.33C26.34 16.05 26.46 15.83 26.71 15.67C26.96 15.51 27.29 15.43 27.69 15.43C27.89 15.43 28.09 15.45 28.3 15.49Q28.61 15.54 28.89 15.65L28.89 16.25C28.89 16.32 28.87 16.39 28.82 16.48ZM39.3 16.48C39.25 16.57 39.19 16.65 39.11 16.74C38.97 16.89 38.8 17.01 38.58 17.1C38.36 17.19 38.13 17.24 37.89 17.24Q37.54 17.24 37.3 17.11C37.14 17.02 37.02 16.91 36.94 16.77C36.86 16.63 36.82 16.48 36.82 16.33C36.82 16.05 36.94 15.83 37.19 15.67C37.44 15.51 37.77 15.43 38.17 15.43C38.37 15.43 38.57 15.45 38.78 15.49Q39.09 15.54 39.37 15.65L39.37 16.25C39.37 16.32 39.34 16.39 39.3 16.48ZM61.78 17.19L60.14 17.19L60.14 15.67L61.8 15.67Q62.01 15.67 62.17 15.76Q62.17 15.77 62.18 15.77C62.29 15.84 62.38 15.93 62.44 16.04C62.5 16.15 62.54 16.28 62.54 16.43C62.54 16.56 62.5 16.69 62.44 16.81C62.37 16.92 62.28 17.02 62.16 17.09C62.04 17.16 61.92 17.19 61.78 17.19Z" fill="#FFFFFF" fill-opacity="1.000000" fill-rule="evenodd"/>
	<path id="Vector" d="M113.59 23.53L120.55 23.53L120.55 16.56M120.54 23.55L112.18 " stroke="#FFFFFF" stroke-opacity="1.000000" stroke-width="2.000000"/>
</svg>
