<svg width="380" height="72" viewBox="0 0 380 72" fill="none" xmlns="http://www.w3.org/2000/svg">
<rect x="0.5" y="0.5" width="379" height="70.0161" stroke="white"/>
<line x1="312.5" y1="2.18557e-08" x2="312.5" y2="71.0161" stroke="white"/>
<path d="M45.238 42.1495C44.266 42.1495 43.384 41.9455 42.592 41.5375C41.812 41.1295 41.2 40.5655 40.756 39.8455L42.304 38.8915C42.592 39.3835 42.982 39.7675 43.474 40.0435C43.978 40.3075 44.554 40.4395 45.202 40.4395C46.018 40.4395 46.642 40.2475 47.074 39.8635C47.518 39.4795 47.74 38.9695 47.74 38.3335C47.74 37.9255 47.65 37.5655 47.47 37.2535C47.29 36.9295 47.02 36.6835 46.66 36.5155C46.3 36.3355 45.862 36.2455 45.346 36.2455H43.924V34.6795H45.346C45.766 34.6795 46.12 34.6015 46.408 34.4455C46.708 34.2775 46.936 34.0555 47.092 33.7795C47.248 33.4915 47.326 33.1675 47.326 32.8075C47.326 32.4355 47.236 32.1115 47.056 31.8355C46.888 31.5475 46.642 31.3255 46.318 31.1695C45.994 31.0015 45.598 30.9175 45.13 30.9175C44.482 30.9175 43.924 31.0495 43.456 31.3135C43 31.5775 42.64 31.9375 42.376 32.3935L40.9 31.3675C41.344 30.6715 41.914 30.1195 42.61 29.7115C43.318 29.3035 44.188 29.0995 45.22 29.0995C46.048 29.0995 46.762 29.2375 47.362 29.5135C47.974 29.7775 48.448 30.1675 48.784 30.6835C49.12 31.1875 49.288 31.7995 49.288 32.5195C49.288 33.1195 49.138 33.6835 48.838 34.2115C48.55 34.7275 48.1 35.1175 47.488 35.3815C48.22 35.5855 48.784 35.9695 49.18 36.5335C49.588 37.0975 49.792 37.7575 49.792 38.5135C49.792 39.2815 49.594 39.9415 49.198 40.4935C48.802 41.0335 48.262 41.4475 47.578 41.7355C46.906 42.0115 46.126 42.1495 45.238 42.1495ZM51.0157 39.2515C51.0157 38.6515 51.1837 38.1295 51.5197 37.6855C51.8677 37.2295 52.3417 36.8815 52.9417 36.6415C53.5417 36.3895 54.2377 36.2635 55.0297 36.2635C55.4497 36.2635 55.8757 36.2935 56.3077 36.3535C56.7517 36.4135 57.1417 36.5095 57.4777 36.6415V36.0475C57.4777 35.3875 57.2797 34.8715 56.8837 34.4995C56.4877 34.1275 55.9177 33.9415 55.1737 33.9415C54.6457 33.9415 54.1477 34.0375 53.6797 34.2295C53.2117 34.4095 52.7137 34.6675 52.1857 35.0035L51.5197 33.6715C52.1437 33.2515 52.7677 32.9395 53.3917 32.7355C54.0277 32.5315 54.6937 32.4295 55.3897 32.4295C56.6497 32.4295 57.6397 32.7655 58.3597 33.4375C59.0917 34.0975 59.4577 35.0395 59.4577 36.2635V39.7735C59.4577 40.0015 59.4937 40.1635 59.5657 40.2595C59.6497 40.3555 59.7877 40.4095 59.9797 40.4215V42.0055C59.7997 42.0415 59.6377 42.0655 59.4937 42.0775C59.3497 42.0895 59.2297 42.0955 59.1337 42.0955C58.7137 42.0955 58.3957 41.9935 58.1797 41.7895C57.9637 41.5855 57.8377 41.3455 57.8017 41.0695L57.7477 40.5295C57.3397 41.0575 56.8177 41.4655 56.1817 41.7535C55.5457 42.0415 54.9037 42.1855 54.2557 42.1855C53.6317 42.1855 53.0737 42.0595 52.5817 41.8075C52.0897 41.5435 51.7057 41.1895 51.4297 40.7455C51.1537 40.3015 51.0157 39.8035 51.0157 39.2515ZM57.0097 39.8275C57.1537 39.6715 57.2677 39.5155 57.3517 39.3595C57.4357 39.2035 57.4777 39.0655 57.4777 38.9455V37.8655C57.1417 37.7335 56.7877 37.6375 56.4157 37.5775C56.0437 37.5055 55.6777 37.4695 55.3177 37.4695C54.5977 37.4695 54.0097 37.6135 53.5537 37.9015C53.1097 38.1895 52.8877 38.5855 52.8877 39.0895C52.8877 39.3655 52.9597 39.6295 53.1037 39.8815C53.2597 40.1335 53.4757 40.3375 53.7517 40.4935C54.0397 40.6495 54.3937 40.7275 54.8137 40.7275C55.2457 40.7275 55.6597 40.6435 56.0557 40.4755C56.4517 40.3075 56.7697 40.0915 57.0097 39.8275ZM61.8599 42.0055V32.5915H63.8219V36.3175H64.7579L67.5299 32.5915H69.7259L66.2879 37.1455L70.1219 42.0055H67.8359L64.7399 38.0995H63.8219V42.0055H61.8599ZM70.9142 39.2515C70.9142 38.6515 71.0822 38.1295 71.4182 37.6855C71.7662 37.2295 72.2402 36.8815 72.8402 36.6415C73.4402 36.3895 74.1362 36.2635 74.9282 36.2635C75.3482 36.2635 75.7742 36.2935 76.2062 36.3535C76.6502 36.4135 77.0402 36.5095 77.3762 36.6415V36.0475C77.3762 35.3875 77.1782 34.8715 76.7822 34.4995C76.3862 34.1275 75.8162 33.9415 75.0722 33.9415C74.5442 33.9415 74.0462 34.0375 73.5782 34.2295C73.1102 34.4095 72.6122 34.6675 72.0842 35.0035L71.4182 33.6715C72.0422 33.2515 72.6662 32.9395 73.2902 32.7355C73.9262 32.5315 74.5922 32.4295 75.2882 32.4295C76.5482 32.4295 77.5382 32.7655 78.2582 33.4375C78.9902 34.0975 79.3562 35.0395 79.3562 36.2635V39.7735C79.3562 40.0015 79.3922 40.1635 79.4642 40.2595C79.5482 40.3555 79.6862 40.4095 79.8782 40.4215V42.0055C79.6982 42.0415 79.5362 42.0655 79.3922 42.0775C79.2482 42.0895 79.1282 42.0955 79.0322 42.0955C78.6122 42.0955 78.2942 41.9935 78.0782 41.7895C77.8622 41.5855 77.7362 41.3455 77.7002 41.0695L77.6462 40.5295C77.2382 41.0575 76.7162 41.4655 76.0802 41.7535C75.4442 42.0415 74.8022 42.1855 74.1542 42.1855C73.5302 42.1855 72.9722 42.0595 72.4802 41.8075C71.9882 41.5435 71.6042 41.1895 71.3282 40.7455C71.0522 40.3015 70.9142 39.8035 70.9142 39.2515ZM76.9082 39.8275C77.0522 39.6715 77.1662 39.5155 77.2502 39.3595C77.3342 39.2035 77.3762 39.0655 77.3762 38.9455V37.8655C77.0402 37.7335 76.6862 37.6375 76.3142 37.5775C75.9422 37.5055 75.5762 37.4695 75.2162 37.4695C74.4962 37.4695 73.9082 37.6135 73.4522 37.9015C73.0082 38.1895 72.7862 38.5855 72.7862 39.0895C72.7862 39.3655 72.8582 39.6295 73.0022 39.8815C73.1582 40.1335 73.3742 40.3375 73.6502 40.4935C73.9382 40.6495 74.2922 40.7275 74.7122 40.7275C75.1442 40.7275 75.5582 40.6435 75.9542 40.4755C76.3502 40.3075 76.6682 40.0915 76.9082 39.8275ZM84.9083 42.1495C83.9483 42.1495 83.1383 41.9755 82.4783 41.6275C81.8303 41.2675 81.3323 40.7755 80.9843 40.1515L82.5863 39.4315C82.7903 39.7795 83.0783 40.0555 83.4503 40.2595C83.8223 40.4515 84.2723 40.5475 84.8003 40.5475C85.4363 40.5475 85.9283 40.4155 86.2763 40.1515C86.6243 39.8875 86.7983 39.5395 86.7983 39.1075C86.7983 38.7115 86.6543 38.3935 86.3663 38.1535C86.0783 37.9015 85.6703 37.7695 85.1423 37.7575H84.1703V36.4975H85.1783C85.4183 36.4975 85.6283 36.4435 85.8083 36.3355C85.9883 36.2275 86.1263 36.0835 86.2223 35.9035C86.3303 35.7115 86.3843 35.4955 86.3843 35.2555C86.3843 34.8955 86.2463 34.6075 85.9703 34.3915C85.7063 34.1635 85.3043 34.0495 84.7643 34.0495C84.2963 34.0495 83.9123 34.1395 83.6123 34.3195C83.3123 34.4875 83.0663 34.7395 82.8743 35.0755L81.3803 34.2835C81.6923 33.7075 82.1483 33.2575 82.7483 32.9335C83.3483 32.6095 84.0503 32.4475 84.8543 32.4475C85.4903 32.4475 86.0543 32.5495 86.5463 32.7535C87.0503 32.9455 87.4403 33.2335 87.7163 33.6175C88.0043 33.9895 88.1483 34.4515 88.1483 35.0035C88.1483 35.4355 88.0463 35.8435 87.8423 36.2275C87.6383 36.5995 87.3203 36.8755 86.8883 37.0555C87.4643 37.2235 87.8963 37.5175 88.1843 37.9375C88.4843 38.3455 88.6343 38.8315 88.6343 39.3955C88.6343 39.9715 88.4723 40.4695 88.1483 40.8895C87.8363 41.2975 87.3983 41.6095 86.8343 41.8255C86.2703 42.0415 85.6283 42.1495 84.9083 42.1495ZM89.7755 39.2515C89.7755 38.6515 89.9435 38.1295 90.2795 37.6855C90.6275 37.2295 91.1015 36.8815 91.7015 36.6415C92.3015 36.3895 92.9975 36.2635 93.7895 36.2635C94.2095 36.2635 94.6355 36.2935 95.0675 36.3535C95.5115 36.4135 95.9015 36.5095 96.2375 36.6415V36.0475C96.2375 35.3875 96.0395 34.8715 95.6435 34.4995C95.2475 34.1275 94.6775 33.9415 93.9335 33.9415C93.4055 33.9415 92.9075 34.0375 92.4395 34.2295C91.9715 34.4095 91.4735 34.6675 90.9455 35.0035L90.2795 33.6715C90.9035 33.2515 91.5275 32.9395 92.1515 32.7355C92.7875 32.5315 93.4535 32.4295 94.1495 32.4295C95.4095 32.4295 96.3995 32.7655 97.1195 33.4375C97.8515 34.0975 98.2175 35.0395 98.2175 36.2635V39.7735C98.2175 40.0015 98.2535 40.1635 98.3255 40.2595C98.4095 40.3555 98.5475 40.4095 98.7395 40.4215V42.0055C98.5595 42.0415 98.3975 42.0655 98.2535 42.0775C98.1095 42.0895 97.9895 42.0955 97.8935 42.0955C97.4735 42.0955 97.1555 41.9935 96.9395 41.7895C96.7235 41.5855 96.5975 41.3455 96.5615 41.0695L96.5075 40.5295C96.0995 41.0575 95.5775 41.4655 94.9415 41.7535C94.3055 42.0415 93.6635 42.1855 93.0155 42.1855C92.3915 42.1855 91.8335 42.0595 91.3415 41.8075C90.8495 41.5435 90.4655 41.1895 90.1895 40.7455C89.9135 40.3015 89.7755 39.8035 89.7755 39.2515ZM95.7695 39.8275C95.9135 39.6715 96.0275 39.5155 96.1115 39.3595C96.1955 39.2035 96.2375 39.0655 96.2375 38.9455V37.8655C95.9015 37.7335 95.5475 37.6375 95.1755 37.5775C94.8035 37.5055 94.4375 37.4695 94.0775 37.4695C93.3575 37.4695 92.7695 37.6135 92.3135 37.9015C91.8695 38.1895 91.6475 38.5855 91.6475 39.0895C91.6475 39.3655 91.7195 39.6295 91.8635 39.8815C92.0195 40.1335 92.2355 40.3375 92.5115 40.4935C92.7995 40.6495 93.1535 40.7275 93.5735 40.7275C94.0055 40.7275 94.4195 40.6435 94.8155 40.4755C95.2115 40.3075 95.5295 40.0915 95.7695 39.8275ZM102.746 42.0055V34.3375H99.6322V32.5915H107.858V34.3375H104.726V42.0055H102.746ZM109.338 42.0055V32.5915H111.318V35.6875H113.568C114.684 35.6875 115.53 35.9695 116.106 36.5335C116.694 37.0975 116.988 37.8415 116.988 38.7655C116.988 39.3895 116.862 39.9475 116.61 40.4395C116.358 40.9315 115.986 41.3155 115.494 41.5915C115.014 41.8675 114.414 42.0055 113.694 42.0055H109.338ZM111.318 40.4755H113.388C113.784 40.4755 114.102 40.4035 114.342 40.2595C114.582 40.1035 114.762 39.8995 114.882 39.6475C115.002 39.3835 115.062 39.1015 115.062 38.8015C115.062 38.5015 115.008 38.2315 114.9 37.9915C114.792 37.7395 114.612 37.5415 114.36 37.3975C114.12 37.2415 113.79 37.1635 113.37 37.1635H111.318V40.4755ZM127.279 42.1855C126.535 42.1855 125.869 42.0595 125.281 41.8075C124.693 41.5435 124.183 41.1835 123.751 40.7275C123.331 40.2715 123.007 39.7555 122.779 39.1795C122.551 38.5915 122.437 37.9675 122.437 37.3075C122.437 36.6475 122.551 36.0235 122.779 35.4355C123.007 34.8475 123.331 34.3315 123.751 33.8875C124.183 33.4315 124.693 33.0775 125.281 32.8255C125.881 32.5615 126.547 32.4295 127.279 32.4295C128.011 32.4295 128.671 32.5615 129.259 32.8255C129.859 33.0775 130.369 33.4315 130.789 33.8875C131.221 34.3315 131.551 34.8475 131.779 35.4355C132.007 36.0235 132.121 36.6475 132.121 37.3075C132.121 37.9675 132.007 38.5915 131.779 39.1795C131.551 39.7555 131.221 40.2715 130.789 40.7275C130.369 41.1835 129.859 41.5435 129.259 41.8075C128.671 42.0595 128.011 42.1855 127.279 42.1855ZM124.471 37.3255C124.471 37.9255 124.597 38.4655 124.849 38.9455C125.101 39.4255 125.437 39.8035 125.857 40.0795C126.277 40.3555 126.751 40.4935 127.279 40.4935C127.795 40.4935 128.263 40.3555 128.683 40.0795C129.115 39.7915 129.457 39.4075 129.709 38.9275C129.961 38.4355 130.087 37.8955 130.087 37.3075C130.087 36.7075 129.961 36.1675 129.709 35.6875C129.457 35.2075 129.115 34.8295 128.683 34.5535C128.263 34.2655 127.795 34.1215 127.279 34.1215C126.751 34.1215 126.277 34.2655 125.857 34.5535C125.437 34.8415 125.101 35.2255 124.849 35.7055C124.597 36.1735 124.471 36.7135 124.471 37.3255ZM138.431 42.1855C136.859 42.1855 135.665 41.7115 134.849 40.7635C134.033 39.8155 133.625 38.4595 133.625 36.6955C133.625 35.5435 133.721 34.5715 133.913 33.7795C134.117 32.9755 134.411 32.3155 134.795 31.7995C135.191 31.2835 135.677 30.8635 136.253 30.5395C136.841 30.2035 137.519 29.9335 138.287 29.7295L142.301 28.6135L142.373 30.2695L138.431 31.3855C137.807 31.5775 137.273 31.8295 136.829 32.1415C136.397 32.4535 136.055 32.8615 135.803 33.3655C135.551 33.8575 135.383 34.4815 135.299 35.2375C135.635 34.6255 136.115 34.1455 136.739 33.7975C137.363 33.4495 138.101 33.2755 138.953 33.2755C139.829 33.2755 140.585 33.4615 141.221 33.8335C141.857 34.1935 142.349 34.6975 142.697 35.3455C143.045 35.9935 143.219 36.7375 143.219 37.5775C143.219 38.4895 143.033 39.2935 142.661 39.9895C142.301 40.6735 141.761 41.2135 141.041 41.6095C140.333 41.9935 139.463 42.1855 138.431 42.1855ZM138.431 40.4935C139.307 40.4935 139.985 40.2355 140.465 39.7195C140.957 39.2035 141.203 38.5195 141.203 37.6675C141.203 36.8515 140.957 36.1855 140.465 35.6695C139.985 35.1415 139.307 34.8775 138.431 34.8775C137.915 34.8775 137.447 34.9915 137.027 35.2195C136.607 35.4355 136.277 35.7535 136.037 36.1735C135.797 36.5815 135.677 37.0795 135.677 37.6675C135.677 38.2195 135.785 38.7115 136.001 39.1435C136.217 39.5635 136.529 39.8935 136.937 40.1335C137.345 40.3735 137.843 40.4935 138.431 40.4935ZM150.35 42.1855C149.594 42.1855 148.928 42.0055 148.352 41.6455C147.776 41.2855 147.32 40.8175 146.984 40.2415V45.8395H145.004V32.5915H146.75V34.2835C147.11 33.7195 147.578 33.2695 148.154 32.9335C148.73 32.5975 149.372 32.4295 150.08 32.4295C150.728 32.4295 151.322 32.5615 151.862 32.8255C152.402 33.0775 152.87 33.4315 153.266 33.8875C153.662 34.3435 153.968 34.8655 154.184 35.4535C154.412 36.0295 154.526 36.6415 154.526 37.2895C154.526 38.1895 154.346 39.0115 153.986 39.7555C153.638 40.4995 153.146 41.0935 152.51 41.5375C151.886 41.9695 151.166 42.1855 150.35 42.1855ZM149.702 40.4935C150.122 40.4935 150.5 40.4035 150.836 40.2235C151.184 40.0435 151.478 39.8035 151.718 39.5035C151.97 39.2035 152.162 38.8615 152.294 38.4775C152.426 38.0935 152.492 37.6975 152.492 37.2895C152.492 36.8575 152.42 36.4495 152.276 36.0655C152.132 35.6815 151.922 35.3455 151.646 35.0575C151.382 34.7695 151.07 34.5415 150.71 34.3735C150.362 34.2055 149.978 34.1215 149.558 34.1215C149.306 34.1215 149.042 34.1695 148.766 34.2655C148.49 34.3615 148.232 34.4935 147.992 34.6615C147.752 34.8295 147.542 35.0275 147.362 35.2555C147.182 35.4835 147.056 35.7235 146.984 35.9755V38.4415C147.152 38.8255 147.374 39.1735 147.65 39.4855C147.926 39.7855 148.244 40.0315 148.604 40.2235C148.964 40.4035 149.33 40.4935 149.702 40.4935ZM155.623 39.2515C155.623 38.6515 155.791 38.1295 156.127 37.6855C156.475 37.2295 156.949 36.8815 157.549 36.6415C158.149 36.3895 158.845 36.2635 159.637 36.2635C160.057 36.2635 160.483 36.2935 160.915 36.3535C161.359 36.4135 161.749 36.5095 162.085 36.6415V36.0475C162.085 35.3875 161.887 34.8715 161.491 34.4995C161.095 34.1275 160.525 33.9415 159.781 33.9415C159.253 33.9415 158.755 34.0375 158.287 34.2295C157.819 34.4095 157.321 34.6675 156.793 35.0035L156.127 33.6715C156.751 33.2515 157.375 32.9395 157.999 32.7355C158.635 32.5315 159.301 32.4295 159.997 32.4295C161.257 32.4295 162.247 32.7655 162.967 33.4375C163.699 34.0975 164.065 35.0395 164.065 36.2635V39.7735C164.065 40.0015 164.101 40.1635 164.173 40.2595C164.257 40.3555 164.395 40.4095 164.587 40.4215V42.0055C164.407 42.0415 164.245 42.0655 164.101 42.0775C163.957 42.0895 163.837 42.0955 163.741 42.0955C163.321 42.0955 163.003 41.9935 162.787 41.7895C162.571 41.5855 162.445 41.3455 162.409 41.0695L162.355 40.5295C161.947 41.0575 161.425 41.4655 160.789 41.7535C160.153 42.0415 159.511 42.1855 158.863 42.1855C158.239 42.1855 157.681 42.0595 157.189 41.8075C156.697 41.5435 156.313 41.1895 156.037 40.7455C155.761 40.3015 155.623 39.8035 155.623 39.2515ZM161.617 39.8275C161.761 39.6715 161.875 39.5155 161.959 39.3595C162.043 39.2035 162.085 39.0655 162.085 38.9455V37.8655C161.749 37.7335 161.395 37.6375 161.023 37.5775C160.651 37.5055 160.285 37.4695 159.925 37.4695C159.205 37.4695 158.617 37.6135 158.161 37.9015C157.717 38.1895 157.495 38.5855 157.495 39.0895C157.495 39.3655 157.567 39.6295 157.711 39.8815C157.867 40.1335 158.083 40.3375 158.359 40.4935C158.647 40.6495 159.001 40.7275 159.421 40.7275C159.853 40.7275 160.267 40.6435 160.663 40.4755C161.059 40.3075 161.377 40.0915 161.617 39.8275ZM168.594 42.0055V34.3375H165.48V32.5915H173.706V34.3375H170.574V42.0055H168.594ZM175.186 42.0055V32.5915H177.166V36.3355H181.54V32.5915H183.52V42.0055H181.54V38.0455H177.166V42.0055H175.186ZM185.909 42.0055V32.5915H187.889V35.6875H189.671C190.787 35.6875 191.639 35.9695 192.227 36.5335C192.815 37.0975 193.109 37.8415 193.109 38.7655C193.109 39.3895 192.983 39.9475 192.731 40.4395C192.479 40.9315 192.107 41.3155 191.615 41.5915C191.135 41.8675 190.535 42.0055 189.815 42.0055H185.909ZM187.889 40.4755H189.509C189.905 40.4755 190.223 40.4035 190.463 40.2595C190.703 40.1035 190.877 39.8995 190.985 39.6475C191.105 39.3835 191.165 39.1015 191.165 38.8015C191.165 38.5015 191.111 38.2315 191.003 37.9915C190.895 37.7395 190.715 37.5415 190.463 37.3975C190.223 37.2415 189.899 37.1635 189.491 37.1635H187.889V40.4755ZM194.657 42.0055V32.6095H196.637V42.0055H194.657ZM199.022 42.0055V32.6095H201.002V39.3595L205.772 32.5915H207.572V42.0055H205.592V35.3995L200.876 42.0055H199.022ZM203.306 31.6195C202.418 31.6195 201.728 31.3975 201.236 30.9535C200.756 30.5095 200.516 29.9515 200.516 29.2795H201.812C201.812 29.6275 201.926 29.9155 202.154 30.1435C202.394 30.3715 202.778 30.4855 203.306 30.4855C203.822 30.4855 204.188 30.3775 204.404 30.1615C204.632 29.9455 204.77 29.6515 204.818 29.2795H206.114C206.114 29.9515 205.868 30.5095 205.376 30.9535C204.896 31.3975 204.206 31.6195 203.306 31.6195ZM217.535 42.1495C216.575 42.1495 215.765 41.9755 215.105 41.6275C214.457 41.2675 213.959 40.7755 213.611 40.1515L215.213 39.4315C215.417 39.7795 215.705 40.0555 216.077 40.2595C216.449 40.4515 216.899 40.5475 217.427 40.5475C218.063 40.5475 218.555 40.4155 218.903 40.1515C219.251 39.8875 219.425 39.5395 219.425 39.1075C219.425 38.7115 219.281 38.3935 218.993 38.1535C218.705 37.9015 218.297 37.7695 217.769 37.7575H216.797V36.4975H217.805C218.045 36.4975 218.255 36.4435 218.435 36.3355C218.615 36.2275 218.753 36.0835 218.849 35.9035C218.957 35.7115 219.011 35.4955 219.011 35.2555C219.011 34.8955 218.873 34.6075 218.597 34.3915C218.333 34.1635 217.931 34.0495 217.391 34.0495C216.923 34.0495 216.539 34.1395 216.239 34.3195C215.939 34.4875 215.693 34.7395 215.501 35.0755L214.007 34.2835C214.319 33.7075 214.775 33.2575 215.375 32.9335C215.975 32.6095 216.677 32.4475 217.481 32.4475C218.117 32.4475 218.681 32.5495 219.173 32.7535C219.677 32.9455 220.067 33.2335 220.343 33.6175C220.631 33.9895 220.775 34.4515 220.775 35.0035C220.775 35.4355 220.673 35.8435 220.469 36.2275C220.265 36.5995 219.947 36.8755 219.515 37.0555C220.091 37.2235 220.523 37.5175 220.811 37.9375C221.111 38.3455 221.261 38.8315 221.261 39.3955C221.261 39.9715 221.099 40.4695 220.775 40.8895C220.463 41.2975 220.025 41.6095 219.461 41.8255C218.897 42.0415 218.255 42.1495 217.535 42.1495ZM223.086 42.0055V32.5915H228.126C228.726 32.5915 229.218 32.7055 229.602 32.9335C229.998 33.1495 230.292 33.4315 230.484 33.7795C230.676 34.1155 230.772 34.4875 230.772 34.8955C230.772 35.4115 230.652 35.8675 230.412 36.2635C230.172 36.6595 229.818 36.9595 229.35 37.1635C229.89 37.3195 230.328 37.5955 230.664 37.9915C231.012 38.3755 231.186 38.8735 231.186 39.4855C231.186 40.0375 231.054 40.5055 230.79 40.8895C230.526 41.2615 230.148 41.5435 229.656 41.7355C229.176 41.9155 228.612 42.0055 227.964 42.0055H223.086ZM224.958 40.6375H227.91C228.162 40.6375 228.39 40.5775 228.594 40.4575C228.81 40.3255 228.978 40.1575 229.098 39.9535C229.218 39.7375 229.278 39.5095 229.278 39.2695C229.278 39.0055 229.218 38.7715 229.098 38.5675C228.99 38.3635 228.834 38.2015 228.63 38.0815C228.438 37.9615 228.21 37.9015 227.946 37.9015H224.958V40.6375ZM224.958 36.6235H227.622C227.874 36.6235 228.096 36.5635 228.288 36.4435C228.48 36.3115 228.63 36.1375 228.738 35.9215C228.846 35.7055 228.9 35.4775 228.9 35.2375C228.9 34.8895 228.786 34.5895 228.558 34.3375C228.33 34.0855 228.03 33.9595 227.658 33.9595H224.958V36.6235ZM237.301 42.1855C236.557 42.1855 235.891 42.0595 235.303 41.8075C234.715 41.5435 234.205 41.1835 233.773 40.7275C233.353 40.2715 233.029 39.7555 232.801 39.1795C232.573 38.5915 232.459 37.9675 232.459 37.3075C232.459 36.6475 232.573 36.0235 232.801 35.4355C233.029 34.8475 233.353 34.3315 233.773 33.8875C234.205 33.4315 234.715 33.0775 235.303 32.8255C235.903 32.5615 236.569 32.4295 237.301 32.4295C238.033 32.4295 238.693 32.5615 239.281 32.8255C239.881 33.0775 240.391 33.4315 240.811 33.8875C241.243 34.3315 241.573 34.8475 241.801 35.4355C242.029 36.0235 242.143 36.6475 242.143 37.3075C242.143 37.9675 242.029 38.5915 241.801 39.1795C241.573 39.7555 241.243 40.2715 240.811 40.7275C240.391 41.1835 239.881 41.5435 239.281 41.8075C238.693 42.0595 238.033 42.1855 237.301 42.1855ZM234.493 37.3255C234.493 37.9255 234.619 38.4655 234.871 38.9455C235.123 39.4255 235.459 39.8035 235.879 40.0795C236.299 40.3555 236.773 40.4935 237.301 40.4935C237.817 40.4935 238.285 40.3555 238.705 40.0795C239.137 39.7915 239.479 39.4075 239.731 38.9275C239.983 38.4355 240.109 37.8955 240.109 37.3075C240.109 36.7075 239.983 36.1675 239.731 35.6875C239.479 35.2075 239.137 34.8295 238.705 34.5535C238.285 34.2655 237.817 34.1215 237.301 34.1215C236.773 34.1215 236.299 34.2655 235.879 34.5535C235.459 34.8415 235.123 35.2255 234.871 35.7055C234.619 36.1735 234.493 36.7135 234.493 37.3255ZM243.899 42.0055V32.5915H245.879V36.3355H250.253V32.5915H252.233V42.0055H250.253V38.0455H245.879V42.0055H243.899ZM258.852 42.1855C258.108 42.1855 257.442 42.0595 256.854 41.8075C256.266 41.5435 255.756 41.1835 255.324 40.7275C254.904 40.2715 254.58 39.7555 254.352 39.1795C254.124 38.5915 254.01 37.9675 254.01 37.3075C254.01 36.6475 254.124 36.0235 254.352 35.4355C254.58 34.8475 254.904 34.3315 255.324 33.8875C255.756 33.4315 256.266 33.0775 256.854 32.8255C257.454 32.5615 258.12 32.4295 258.852 32.4295C259.584 32.4295 260.244 32.5615 260.832 32.8255C261.432 33.0775 261.942 33.4315 262.362 33.8875C262.794 34.3315 263.124 34.8475 263.352 35.4355C263.58 36.0235 263.694 36.6475 263.694 37.3075C263.694 37.9675 263.58 38.5915 263.352 39.1795C263.124 39.7555 262.794 40.2715 262.362 40.7275C261.942 41.1835 261.432 41.5435 260.832 41.8075C260.244 42.0595 259.584 42.1855 258.852 42.1855ZM256.044 37.3255C256.044 37.9255 256.17 38.4655 256.422 38.9455C256.674 39.4255 257.01 39.8035 257.43 40.0795C257.85 40.3555 258.324 40.4935 258.852 40.4935C259.368 40.4935 259.836 40.3555 260.256 40.0795C260.688 39.7915 261.03 39.4075 261.282 38.9275C261.534 38.4355 261.66 37.8955 261.66 37.3075C261.66 36.7075 261.534 36.1675 261.282 35.6875C261.03 35.2075 260.688 34.8295 260.256 34.5535C259.836 34.2655 259.368 34.1215 258.852 34.1215C258.324 34.1215 257.85 34.2655 257.43 34.5535C257.01 34.8415 256.674 35.2255 256.422 35.7055C256.17 36.1735 256.044 36.7135 256.044 37.3255ZM265.45 42.0055V32.5915H267.412V36.3175H268.348L271.12 32.5915H273.316L269.878 37.1455L273.712 42.0055H271.426L268.33 38.0995H267.412V42.0055H265.45Z" fill="white"/>
<path d="M367 41.3026V57.9649H350.373M366.962 58.013L347 38.0084" stroke="white" stroke-width="2"/>
</svg>
