<svg width="380.000000" height="71.000000" viewBox="0 0 380 71" fill="none" xmlns="http://www.w3.org/2000/svg" xmlns:xlink="http://www.w3.org/1999/xlink">
	<desc>
			Created with Pixso.
	</desc>
	<defs/>
	<rect id="Rectangle 288" width="380.000000" height="71.000000" fill="#FFFFFF" fill-opacity="1.000000"/>
	<rect id="Rectangle 288" x="0.500000" y="0.500000" width="379.000000" height="70.000000" stroke="#FFFFFF" stroke-opacity="1.000000" stroke-width="1.000000"/>
	<line id="Line 170" x1="309.000000" y1="0.000000" x2="309.000000" y2="71.000000" stroke="#0B3461" stroke-opacity="1.000000" stroke-width="2.000000"/>
	<path id="Записаться на консультацию" d="M26.59 41.88C27.38 42.29 28.26 42.49 29.23 42.49C30.12 42.49 30.9 42.36 31.57 42.08C32.26 41.79 32.8 41.38 33.19 40.84Q33.3 40.68 33.39 40.52Q33.79 39.8 33.79 38.86Q33.79 38.05 33.48 37.38Q33.35 37.12 33.18 36.88Q33 36.63 32.79 36.43Q32.26 35.94 31.48 35.73C32.09 35.46 32.55 35.07 32.83 34.56C33.13 34.03 33.28 33.46 33.28 32.86Q33.28 31.81 32.8 31.07Q32.79 31.05 32.78 31.03C32.44 30.51 31.97 30.12 31.36 29.86C30.76 29.58 30.04 29.44 29.22 29.44Q27.67 29.44 26.61 30.06C25.91 30.46 25.34 31.02 24.9 31.71L26.37 32.74Q26.57 32.4 26.84 32.13Q27.11 31.86 27.45 31.66C27.92 31.39 28.48 31.26 29.13 31.26Q29.83 31.26 30.31 31.51C30.64 31.67 30.88 31.89 31.05 32.18C31.23 32.46 31.32 32.78 31.32 33.15Q31.32 33.63 31.14 34.02Q31.12 34.07 31.09 34.12C30.93 34.4 30.7 34.62 30.4 34.79C30.12 34.95 29.76 35.02 29.34 35.02L27.92 35.02L27.92 36.59L29.34 36.59Q30.12 36.59 30.66 36.86C31.02 37.03 31.29 37.27 31.47 37.6C31.65 37.91 31.74 38.27 31.74 38.68Q31.74 39.26 31.48 39.71Q31.33 39.99 31.07 40.21Q30.42 40.78 29.2 40.78Q28.23 40.78 27.47 40.39C26.98 40.11 26.59 39.73 26.3 39.24L24.75 40.19Q24.99 40.58 25.29 40.9Q25.84 41.49 26.59 41.88ZM35.25 38.48Q35.01 38.98 35.01 39.59C35.01 40.15 35.15 40.65 35.42 41.09Q35.53 41.26 35.66 41.41Q36.03 41.86 36.58 42.15C37.07 42.4 37.63 42.53 38.25 42.53Q38.34 42.53 38.43 42.53Q39.31 42.49 40.18 42.1C40.81 41.81 41.33 41.4 41.74 40.87L41.8 41.41C41.83 41.69 41.96 41.93 42.17 42.13C42.39 42.34 42.71 42.44 43.13 42.44C43.22 42.44 43.34 42.43 43.49 42.42C43.63 42.41 43.79 42.39 43.97 42.35L43.97 40.77C43.78 40.75 43.64 40.7 43.56 40.6C43.49 40.51 43.45 40.34 43.45 40.12L43.45 36.61Q43.45 35.12 42.74 34.19Q42.57 33.97 42.35 33.78Q42.26 33.7 42.17 33.62Q41.12 32.77 39.38 32.77Q38.42 32.77 37.53 33.03Q37.46 33.06 37.39 33.08C36.76 33.28 36.14 33.59 35.51 34.02L36.18 35.35C36.71 35.01 37.21 34.75 37.67 34.57C38.14 34.38 38.64 34.29 39.17 34.29Q40.28 34.29 40.88 34.84Q40.88 34.84 40.88 34.84Q41 34.96 41.1 35.09Q41.47 35.61 41.47 36.39L41.47 36.99C41.14 36.85 40.75 36.76 40.3 36.7C39.87 36.64 39.44 36.61 39.02 36.61Q37.84 36.61 36.94 36.99C36.34 37.23 35.86 37.57 35.51 38.03Q35.35 38.24 35.25 38.48ZM69.53 42.15C70.13 42.4 70.8 42.53 71.53 42.53C72.2 42.53 72.81 42.43 73.35 42.22C73.9 42.01 74.37 41.72 74.77 41.36C75.18 41 75.49 40.59 75.69 40.12L73.75 39.54C73.65 39.78 73.49 40 73.26 40.21C73.03 40.4 72.76 40.56 72.45 40.68C72.15 40.78 71.84 40.84 71.51 40.84Q71.04 40.84 70.62 40.69Q70.34 40.59 70.07 40.42C69.65 40.14 69.32 39.75 69.07 39.27Q69.01 39.17 68.97 39.06Q68.69 38.41 68.69 37.63C68.69 37.01 68.81 36.46 69.05 36C69.3 35.52 69.64 35.14 70.06 34.88C70.49 34.6 70.97 34.47 71.5 34.47C71.96 34.47 72.39 34.58 72.77 34.81C73.17 35.02 73.48 35.33 73.69 35.73L75.62 35.11Q75.45 34.77 75.23 34.47Q74.76 33.85 74.03 33.42C73.33 32.99 72.49 32.77 71.53 32.77C70.54 32.77 69.67 33 68.94 33.44C68.22 33.88 67.66 34.47 67.25 35.2C66.85 35.93 66.65 36.75 66.65 37.63C66.65 38.29 66.77 38.92 67 39.5C67.24 40.09 67.57 40.62 68 41.07C68.44 41.53 68.94 41.89 69.53 42.15ZM76.87 38.48Q76.64 38.98 76.64 39.59C76.64 40.15 76.77 40.65 77.05 41.09C77.33 41.53 77.71 41.89 78.2 42.15C78.69 42.4 79.25 42.53 79.88 42.53C80.52 42.53 81.17 42.39 81.8 42.1C82.44 41.81 82.96 41.4 83.37 40.87L83.42 41.41C83.46 41.69 83.58 41.93 83.8 42.13C84.02 42.34 84.33 42.44 84.75 42.44C84.85 42.44 84.97 42.43 85.11 42.42C85.26 42.41 85.42 42.39 85.6 42.35L85.6 40.77C85.41 40.75 85.27 40.7 85.19 40.6C85.11 40.51 85.08 40.34 85.08 40.12L85.08 36.61C85.08 35.38 84.71 34.44 83.98 33.78C83.26 33.11 82.27 32.77 81.01 32.77C80.31 32.77 79.65 32.88 79.01 33.08C78.39 33.28 77.76 33.59 77.14 34.02L77.81 35.35C78.33 35.01 78.83 34.75 79.3 34.57C79.77 34.38 80.27 34.29 80.79 34.29C81.54 34.29 82.11 34.47 82.5 34.84C82.9 35.22 83.1 35.73 83.1 36.39L83.1 36.99C82.76 36.85 82.37 36.76 81.93 36.7C81.5 36.64 81.07 36.61 80.65 36.61C79.86 36.61 79.16 36.73 78.56 36.99C77.96 37.23 77.49 37.57 77.14 38.03Q76.98 38.24 76.87 38.48ZM107.73 42.15C108.33 42.4 109 42.53 109.73 42.53C110.4 42.53 111.01 42.43 111.55 42.22C112.1 42.01 112.57 41.72 112.97 41.36C113.38 41 113.68 40.59 113.89 40.12L111.94 39.54C111.85 39.78 111.68 40 111.46 40.21C111.23 40.4 110.96 40.56 110.65 40.68C110.35 40.78 110.03 40.84 109.71 40.84C109.18 40.84 108.7 40.7 108.27 40.42C107.85 40.14 107.51 39.75 107.26 39.27Q107.21 39.17 107.17 39.06Q106.88 38.41 106.88 37.63C106.88 37.01 107 36.46 107.24 36Q107.55 35.41 108.03 35.03Q108.14 34.95 108.25 34.88C108.68 34.6 109.16 34.47 109.69 34.47C110.16 34.47 110.59 34.58 110.97 34.81C111.37 35.02 111.67 35.33 111.89 35.73L113.81 35.11Q113.65 34.77 113.43 34.47Q112.96 33.85 112.23 33.42C111.52 32.99 110.69 32.77 109.73 32.77C108.73 32.77 107.87 33 107.14 33.44C106.42 33.88 105.85 34.47 105.44 35.2C105.05 35.93 104.85 36.75 104.85 37.63C104.85 38.29 104.96 38.92 105.19 39.5C105.43 40.09 105.77 40.62 106.2 41.07C106.63 41.53 107.14 41.89 107.73 42.15ZM140.19 38.03C139.86 38.47 139.69 39 139.69 39.59C139.69 40.15 139.83 40.65 140.1 41.09C140.38 41.53 140.76 41.89 141.25 42.15C141.75 42.4 142.3 42.53 142.93 42.53Q143.02 42.53 143.11 42.53Q143.99 42.49 144.85 42.1C145.49 41.81 146.01 41.4 146.42 40.87L146.47 41.41C146.51 41.69 146.64 41.93 146.85 42.13C147.07 42.34 147.39 42.44 147.81 42.44C147.9 42.44 148.02 42.43 148.17 42.42C148.31 42.41 148.47 42.39 148.65 42.35L148.65 40.77C148.46 40.75 148.32 40.7 148.24 40.6C148.17 40.51 148.13 40.34 148.13 40.12L148.13 36.61C148.13 35.38 147.76 34.44 147.03 33.78C146.31 33.11 145.32 32.77 144.06 32.77Q143.1 32.77 142.21 33.03Q142.14 33.06 142.06 33.08C141.44 33.28 140.82 33.59 140.19 34.02L140.86 35.35C141.39 35.01 141.88 34.75 142.35 34.57C142.82 34.38 143.32 34.29 143.85 34.29Q144.96 34.29 145.55 34.84L145.56 34.84C145.95 35.22 146.15 35.73 146.15 36.39L146.15 36.99C145.81 36.85 145.42 36.76 144.98 36.7C144.55 36.64 144.12 36.61 143.7 36.61Q142.51 36.61 141.61 36.99C141.01 37.23 140.54 37.57 140.19 38.03ZM166.49 42.15C167.08 42.4 167.75 42.53 168.49 42.53C169.22 42.53 169.88 42.4 170.47 42.15C171.07 41.89 171.58 41.53 172 41.07Q172.39 40.66 172.67 40.19Q172.85 39.87 172.99 39.52Q173.05 39.37 173.1 39.22Q173.33 38.47 173.33 37.65C173.33 36.99 173.22 36.37 172.99 35.78C172.76 35.19 172.43 34.68 172 34.23C171.58 33.78 171.07 33.42 170.47 33.17C169.88 32.91 169.22 32.77 168.49 32.77Q167.39 32.77 166.49 33.17C165.91 33.42 165.4 33.78 164.96 34.23C164.54 34.68 164.22 35.19 163.99 35.78C163.76 36.37 163.65 36.99 163.65 37.65Q163.65 38.47 163.89 39.22Q163.93 39.37 163.99 39.52C164.22 40.1 164.54 40.62 164.96 41.07C165.4 41.53 165.91 41.89 166.49 42.15ZM188.08 42.15C188.68 42.4 189.35 42.53 190.08 42.53C190.75 42.53 191.36 42.43 191.9 42.22Q192.72 41.9 193.32 41.36C193.73 41 194.03 40.59 194.24 40.12L192.29 39.54C192.2 39.78 192.03 40 191.81 40.21C191.58 40.4 191.31 40.56 191 40.68C190.7 40.78 190.38 40.84 190.06 40.84C189.53 40.84 189.05 40.7 188.62 40.42Q188.47 40.32 188.34 40.2Q187.9 39.82 187.61 39.27C187.36 38.78 187.23 38.23 187.23 37.63C187.23 37.01 187.35 36.46 187.59 36Q187.9 35.41 188.38 35.03Q188.49 34.95 188.6 34.88C189.03 34.6 189.51 34.47 190.04 34.47C190.51 34.47 190.94 34.58 191.32 34.81C191.72 35.02 192.02 35.33 192.24 35.73L194.16 35.11C193.83 34.41 193.3 33.84 192.58 33.42C191.87 32.99 191.04 32.77 190.08 32.77C189.08 32.77 188.22 33 187.49 33.44C186.77 33.88 186.2 34.47 185.79 35.2Q185.65 35.46 185.55 35.73Q185.2 36.61 185.2 37.63C185.2 38.29 185.31 38.92 185.54 39.5Q185.75 40.02 186.06 40.46Q186.28 40.78 186.55 41.07C186.98 41.53 187.49 41.89 188.08 42.15ZM233.7 38.48Q233.47 38.98 233.47 39.59C233.47 40.15 233.61 40.65 233.88 41.09Q233.99 41.26 234.12 41.41Q234.49 41.86 235.03 42.15C235.53 42.4 236.08 42.53 236.71 42.53Q236.8 42.53 236.89 42.53Q237.77 42.49 238.63 42.1C239.27 41.81 239.79 41.4 240.2 40.87L240.25 41.41C240.29 41.69 240.42 41.93 240.63 42.13C240.85 42.34 241.17 42.44 241.59 42.44C241.68 42.44 241.8 42.43 241.95 42.42C242.09 42.41 242.25 42.39 242.43 42.35L242.43 40.77C242.24 40.75 242.1 40.7 242.02 40.6C241.95 40.51 241.91 40.34 241.91 40.12L241.91 36.61Q241.91 35.12 241.19 34.19Q241.02 33.97 240.81 33.78C240.09 33.11 239.1 32.77 237.84 32.77Q236.88 32.77 235.99 33.03Q235.92 33.06 235.84 33.08C235.22 33.28 234.6 33.59 233.97 34.02L234.64 35.35C235.17 35.01 235.66 34.75 236.13 34.57C236.6 34.38 237.1 34.29 237.63 34.29C238.37 34.29 238.94 34.47 239.34 34.84C239.73 35.22 239.93 35.73 239.93 36.39L239.93 36.99C239.59 36.85 239.2 36.76 238.76 36.7C238.33 36.64 237.9 36.61 237.48 36.61C236.69 36.61 235.99 36.73 235.39 36.99C234.79 37.23 234.32 37.57 233.97 38.03Q233.81 38.24 233.7 38.48ZM271.91 42.01C272.56 42.36 273.29 42.53 274.12 42.53Q275.54 42.53 276.58 41.9Q276.59 41.89 276.6 41.88C277.31 41.45 277.85 40.87 278.23 40.14Q278.25 40.09 278.27 40.05Q278.8 38.99 278.8 37.65C278.8 36.75 278.62 35.93 278.24 35.2C277.87 34.47 277.34 33.88 276.64 33.44C275.95 33 275.1 32.77 274.12 32.77Q272.9 32.77 271.94 33.28C271.31 33.61 270.79 34.09 270.38 34.7C269.98 35.3 269.73 36 269.62 36.79L268 36.79L268 32.93L266.02 32.93L266.02 42.35L268 42.35L268 38.52L269.62 38.52Q269.77 39.55 270.24 40.39Q270.3 40.49 270.36 40.59C270.76 41.19 271.27 41.66 271.91 42.01ZM117.34 38.62L114.82 42.35L116.98 42.35L119.28 38.95L120.83 38.95L120.83 42.35L122.81 42.35L122.81 32.92L118.67 32.92Q117.7 32.92 116.96 33.3C116.47 33.55 116.08 33.9 115.81 34.34C115.54 34.78 115.41 35.3 115.41 35.89C115.41 36.66 115.59 37.27 115.93 37.72C116.28 38.18 116.75 38.48 117.34 38.62ZM45.85 32.93L45.85 42.35L47.83 42.35L47.83 34.68L51.97 34.68L51.97 42.35L53.95 42.35L53.95 32.93L45.85 32.93ZM56.35 32.95L56.35 42.35L58.2 42.35L62.92 35.74L62.92 42.35L64.9 42.35L64.9 32.93L63.1 32.93L58.33 39.7L58.33 32.95L56.35 32.95ZM89.61 34.68L89.61 42.35L91.59 42.35L91.59 34.68L94.72 34.68L94.72 32.93L86.49 32.93L86.49 34.68L89.61 34.68ZM96.2 32.93L96.2 42.35L100.56 42.35C101.28 42.35 101.88 42.21 102.36 41.94C102.85 41.66 103.22 41.28 103.47 40.78Q103.85 40.05 103.85 39.11Q103.85 38.14 103.42 37.43Q103.23 37.13 102.97 36.88Q102.96 36.87 102.95 36.86Q102.08 36.03 100.43 36.03L98.18 36.03L98.18 32.93L96.2 32.93ZM129.65 32.93L129.65 42.35L131.63 42.35L131.63 38.39L136 38.39L136 42.35L137.98 42.35L137.98 32.93L136 32.93L136 36.68L131.63 36.68L131.63 32.93L129.65 32.93ZM154.98 32.93L154.98 42.35L156.94 42.35L156.94 38.44L157.86 38.44L160.96 42.35L163.24 42.35L159.41 37.49L162.85 32.93L160.65 32.93L157.88 36.66L156.94 36.66L156.94 32.93L154.98 32.93ZM175.09 32.93L175.09 42.35L177.07 42.35L177.07 38.39L181.44 38.39L181.44 42.35L183.42 42.35L183.42 32.93L181.44 32.93L181.44 36.68L177.07 36.68L177.07 32.93L175.09 32.93ZM196.29 46.26C196.53 46.32 196.75 46.35 196.97 46.35C197.39 46.35 197.79 46.24 198.16 46.04C198.53 45.85 198.87 45.57 199.17 45.19C199.48 44.82 199.74 44.35 199.94 43.79L204.08 32.93L202.17 32.93L199.62 40.33L196.74 32.93L194.67 32.93L198.64 42.28L198.28 43.25C198.09 43.74 197.87 44.11 197.62 44.35C197.38 44.6 197.11 44.73 196.81 44.73C196.7 44.73 196.58 44.71 196.45 44.67C196.32 44.64 196.18 44.58 196.03 44.51L195.53 45.99C195.79 46.11 196.05 46.2 196.29 46.26ZM204.78 40.68L204.78 42.44C205.4 42.44 205.95 42.34 206.42 42.13C206.9 41.92 207.29 41.57 207.61 41.09C207.93 40.6 208.18 39.94 208.36 39.11Q208.63 37.85 208.7 35.96L208.74 34.68L211.73 34.68L211.73 42.35L213.71 42.35L213.71 32.93L206.99 32.93L206.87 35.78C206.83 36.76 206.76 37.57 206.65 38.21C206.54 38.84 206.4 39.34 206.22 39.7C206.04 40.05 205.83 40.3 205.59 40.46C205.35 40.6 205.08 40.68 204.78 40.68ZM216.08 32.93L216.08 42.35L220.44 42.35C221.16 42.35 221.76 42.21 222.24 41.94C222.73 41.66 223.1 41.28 223.35 40.78C223.61 40.29 223.73 39.73 223.73 39.11C223.73 38.18 223.44 37.44 222.85 36.88C222.27 36.31 221.43 36.03 220.31 36.03L218.06 36.03L218.06 32.93L216.08 32.93ZM227.58 34.68L227.58 42.35L229.56 42.35L229.56 34.68L232.69 34.68L232.69 32.93L224.46 32.93L224.46 34.68L227.58 34.68ZM251.69 42.35L251.69 44.6L253.44 44.6L253.44 40.62L252.12 40.62L252.12 32.93L250.14 32.93L250.14 40.62L246.29 40.62L246.29 32.93L244.31 32.93L244.31 42.35L251.69 42.35ZM255.11 32.95L255.11 42.35L256.96 42.35L261.68 35.74L261.68 42.35L263.66 42.35L263.66 32.93L261.85 32.93L257.09 39.7L257.09 32.95L255.11 32.95ZM120.83 37.51L118.87 37.51Q118.28 37.51 117.92 37.23Q117.82 37.15 117.73 37.06C117.48 36.76 117.36 36.39 117.36 35.94C117.36 35.5 117.5 35.14 117.79 34.86C118.09 34.59 118.49 34.45 118.99 34.45L120.83 34.45L120.83 37.51ZM166.06 39.29C165.81 38.81 165.68 38.27 165.68 37.67C165.68 37.06 165.81 36.52 166.06 36.05Q166.35 35.5 166.79 35.12Q166.92 35 167.07 34.9Q167.32 34.73 167.6 34.62Q168.01 34.47 168.49 34.47C169.01 34.47 169.48 34.61 169.9 34.9C170.33 35.17 170.67 35.55 170.92 36.03C171.17 36.51 171.3 37.05 171.3 37.65C171.3 38.24 171.17 38.78 170.92 39.27C170.67 39.75 170.33 40.14 169.9 40.42C169.48 40.7 169.01 40.84 168.49 40.84Q167.98 40.84 167.53 40.66Q167.29 40.57 167.07 40.42C166.65 40.15 166.31 39.77 166.06 39.29ZM275.51 40.44C275.11 40.71 274.65 40.84 274.12 40.84Q273.64 40.84 273.22 40.68Q273 40.59 272.79 40.46C272.41 40.2 272.1 39.82 271.87 39.34C271.66 38.86 271.55 38.3 271.55 37.65C271.55 37.02 271.66 36.46 271.87 35.98C272.09 35.5 272.39 35.13 272.77 34.86C273.17 34.6 273.62 34.47 274.12 34.47C274.63 34.47 275.08 34.6 275.49 34.86C275.9 35.13 276.22 35.5 276.44 35.98Q276.79 36.68 276.79 37.65C276.79 38.29 276.67 38.84 276.44 39.33C276.22 39.79 275.9 40.16 275.51 40.44ZM100.25 40.82L98.18 40.82L98.18 37.51L100.23 37.51C100.65 37.51 100.98 37.59 101.22 37.74Q101.46 37.88 101.62 38.08Q101.7 38.2 101.76 38.34C101.87 38.58 101.92 38.84 101.92 39.15C101.92 39.45 101.86 39.73 101.74 39.99C101.62 40.24 101.44 40.45 101.2 40.6C100.96 40.75 100.65 40.82 100.25 40.82ZM220.13 40.82L218.06 40.82L218.06 37.51L220.11 37.51Q220.74 37.51 221.1 37.74C221.36 37.89 221.54 38.08 221.64 38.34C221.75 38.58 221.81 38.84 221.81 39.15C221.81 39.45 221.75 39.73 221.63 39.99C221.51 40.24 221.33 40.45 221.09 40.6C220.85 40.75 220.53 40.82 220.13 40.82ZM41.35 39.7C41.26 39.86 41.15 40.02 41 40.17C40.76 40.43 40.45 40.65 40.05 40.82C39.65 40.99 39.24 41.07 38.81 41.07Q38.18 41.07 37.75 40.84C37.47 40.68 37.25 40.48 37.1 40.23C36.95 39.97 36.88 39.71 36.88 39.43Q36.88 39.1 37.02 38.82Q37.18 38.48 37.55 38.25Q38.23 37.81 39.31 37.81C39.67 37.81 40.04 37.85 40.41 37.92C40.78 37.98 41.14 38.08 41.47 38.21L41.47 39.29C41.47 39.41 41.43 39.55 41.35 39.7ZM82.97 39.7C82.89 39.86 82.77 40.02 82.63 40.17C82.39 40.43 82.07 40.65 81.68 40.82C81.28 40.99 80.87 41.07 80.43 41.07Q79.8 41.07 79.37 40.84C79.1 40.68 78.88 40.48 78.72 40.23C78.58 39.97 78.51 39.71 78.51 39.43Q78.51 39.1 78.64 38.82Q78.81 38.48 79.17 38.25C79.63 37.96 80.22 37.81 80.94 37.81C81.3 37.81 81.66 37.85 82.04 37.92C82.41 37.98 82.76 38.08 83.1 38.21L83.1 39.29C83.1 39.41 83.06 39.55 82.97 39.7ZM146.02 39.7C145.94 39.86 145.83 40.02 145.68 40.17C145.44 40.43 145.12 40.65 144.73 40.82C144.33 40.99 143.92 41.07 143.49 41.07C143.07 41.07 142.71 40.99 142.42 40.84C142.15 40.68 141.93 40.48 141.78 40.23C141.63 39.97 141.56 39.71 141.56 39.43Q141.56 39.1 141.69 38.82Q141.86 38.48 142.23 38.25C142.68 37.96 143.27 37.81 143.99 37.81C144.35 37.81 144.72 37.85 145.09 37.92C145.46 37.98 145.81 38.08 146.15 38.21L146.15 39.29C146.15 39.41 146.11 39.55 146.02 39.7ZM239.8 39.7C239.72 39.86 239.61 40.02 239.46 40.17C239.22 40.43 238.9 40.65 238.51 40.82C238.11 40.99 237.7 41.07 237.27 41.07C236.85 41.07 236.49 40.99 236.2 40.84C235.93 40.68 235.71 40.48 235.56 40.23C235.41 39.97 235.34 39.71 235.34 39.43Q235.34 39.1 235.47 38.82Q235.64 38.48 236.01 38.25Q236.69 37.81 237.77 37.81C238.13 37.81 238.5 37.85 238.87 37.92C239.24 37.98 239.59 38.08 239.93 38.21L239.93 39.29C239.93 39.41 239.89 39.55 239.8 39.7Z" fill="#07305D" fill-opacity="1.000000" fill-rule="evenodd"/>
	<path id="Vector" d="M350.37 57.95L367 57.95L367 41.29M366.96 58L347 " stroke="#07305D" stroke-opacity="1.000000" stroke-width="2.000000"/>
</svg>
