<svg width="126.000000" height="31.000000" viewBox="0 0 126 31" fill="none" xmlns="http://www.w3.org/2000/svg" xmlns:xlink="http://www.w3.org/1999/xlink">
	<desc>
			Created with Pixso.
	</desc>
	<defs/>
	<rect id="Rectangle 288" width="126.000000" height="30.279070" fill="#FFFFFF" fill-opacity="1.000000"/>
	<rect id="Rectangle 288" x="0.500000" y="0.500000" width="125.000000" height="29.279070" stroke="#FFFFFF" stroke-opacity="1.000000" stroke-width="1.000000"/>
	<line id="Line 170" x1="98.250000" y1="0.000000" x2="98.250000" y2="30.139648" stroke="#0B3461" stroke-opacity="1.000000" stroke-width="2.000000"/>
	<line id="Line 168" x1="99.347626" y1="0.000000" x2="99.347626" y2="30.139648" stroke="#FFFFFF" stroke-opacity="1.000000" stroke-width="1.000000"/>
	<path id="Записаться" d="M21.76 18.2C22.2 18.43 22.69 18.54 23.23 18.54Q23.97 18.54 24.53 18.31C24.91 18.15 25.21 17.92 25.43 17.62Q25.49 17.54 25.54 17.45Q25.76 17.05 25.76 16.52Q25.76 16.08 25.58 15.71Q25.51 15.56 25.42 15.42C25.2 15.11 24.88 14.9 24.48 14.78Q24.88 14.61 25.11 14.31Q25.18 14.23 25.23 14.13C25.39 13.84 25.48 13.53 25.48 13.19Q25.48 12.61 25.21 12.2Q25.2 12.19 25.2 12.17C25.01 11.89 24.75 11.67 24.41 11.52C24.07 11.37 23.68 11.29 23.22 11.29Q22.36 11.29 21.77 11.63Q21.54 11.77 21.34 11.94Q21.04 12.2 20.82 12.55L21.64 13.12C21.78 12.87 21.98 12.67 22.24 12.52C22.5 12.38 22.81 12.3 23.17 12.3Q23.56 12.3 23.83 12.44C24.01 12.53 24.14 12.65 24.24 12.81C24.34 12.97 24.39 13.15 24.39 13.35Q24.39 13.62 24.29 13.84Q24.27 13.87 24.26 13.89C24.17 14.05 24.04 14.17 23.88 14.26C23.72 14.35 23.52 14.39 23.29 14.39L22.5 14.39L22.5 15.26L23.29 15.26Q23.72 15.26 24.02 15.41Q24.22 15.51 24.36 15.67Q24.42 15.74 24.47 15.82C24.57 16 24.62 16.2 24.62 16.42C24.62 16.78 24.49 17.06 24.25 17.27C24.01 17.49 23.66 17.59 23.21 17.59Q22.67 17.59 22.25 17.37C21.97 17.22 21.76 17.01 21.6 16.73L20.74 17.26Q20.87 17.48 21.04 17.66Q21.34 17.99 21.76 18.2ZM26.57 16.31Q26.44 16.59 26.44 16.93Q26.44 17.25 26.54 17.52Q26.59 17.65 26.67 17.76C26.82 18.01 27.03 18.21 27.31 18.35C27.58 18.49 27.89 18.56 28.24 18.56Q28.29 18.56 28.34 18.56Q28.83 18.54 29.31 18.32C29.66 18.16 29.95 17.94 30.18 17.64L30.21 17.94C30.23 18.1 30.3 18.23 30.42 18.34C30.54 18.46 30.71 18.51 30.95 18.51C31 18.51 31.07 18.51 31.15 18.5Q31.27 18.49 31.42 18.46L31.42 17.58C31.31 17.58 31.23 17.55 31.19 17.49C31.15 17.44 31.13 17.35 31.13 17.22L31.13 15.27Q31.13 14.45 30.73 13.93Q30.63 13.81 30.52 13.7Q30.47 13.66 30.41 13.61Q29.83 13.14 28.87 13.14Q28.33 13.14 27.84 13.29Q27.8 13.3 27.76 13.31C27.41 13.43 27.06 13.6 26.72 13.83L27.09 14.57Q27.53 14.29 27.92 14.14C28.18 14.04 28.45 13.98 28.75 13.98C29.16 13.98 29.48 14.09 29.7 14.29C29.92 14.5 30.03 14.79 30.03 15.15L30.03 15.48C29.84 15.41 29.62 15.36 29.38 15.32C29.14 15.29 28.9 15.27 28.67 15.27Q28.01 15.27 27.51 15.48C27.17 15.62 26.91 15.81 26.72 16.06Q26.63 16.18 26.57 16.31ZM45.62 18.35C45.95 18.49 46.32 18.56 46.73 18.56C47.1 18.56 47.44 18.51 47.74 18.39C48.04 18.27 48.31 18.11 48.53 17.91C48.75 17.71 48.92 17.48 49.04 17.22L47.96 16.9C47.9 17.04 47.81 17.16 47.69 17.27C47.56 17.38 47.41 17.47 47.24 17.53C47.07 17.59 46.9 17.62 46.72 17.62Q46.46 17.62 46.22 17.54Q46.06 17.49 45.92 17.39C45.68 17.23 45.5 17.02 45.36 16.75Q45.33 16.7 45.3 16.64Q45.15 16.28 45.15 15.84Q45.15 15.32 45.35 14.93Q45.52 14.61 45.78 14.4Q45.84 14.35 45.91 14.31C46.15 14.16 46.41 14.08 46.71 14.08C46.97 14.08 47.2 14.15 47.42 14.27Q47.58 14.36 47.71 14.49Q47.84 14.62 47.93 14.78L49 14.44C48.81 14.05 48.52 13.74 48.12 13.5C47.72 13.26 47.26 13.14 46.73 13.14C46.17 13.14 45.69 13.27 45.29 13.51Q44.96 13.71 44.72 13.98Q44.5 14.21 44.35 14.49C44.13 14.9 44.02 15.35 44.02 15.84Q44.02 16.3 44.15 16.72Q44.17 16.8 44.21 16.88Q44.32 17.17 44.49 17.42Q44.62 17.6 44.77 17.75C45.01 18.01 45.29 18.21 45.62 18.35ZM49.84 16.06C49.66 16.31 49.56 16.6 49.56 16.93Q49.56 17.25 49.67 17.52Q49.72 17.65 49.79 17.76C49.95 18.01 50.16 18.21 50.43 18.35C50.71 18.49 51.02 18.56 51.36 18.56C51.72 18.56 52.08 18.48 52.43 18.32C52.79 18.16 53.08 17.94 53.3 17.64L53.33 17.94C53.35 18.1 53.42 18.23 53.54 18.34C53.66 18.46 53.84 18.51 54.07 18.51C54.13 18.51 54.19 18.51 54.27 18.5Q54.39 18.49 54.54 18.46L54.54 17.58C54.44 17.58 54.36 17.55 54.31 17.49C54.27 17.44 54.25 17.35 54.25 17.22L54.25 15.27C54.25 14.59 54.05 14.07 53.64 13.7C53.24 13.33 52.69 13.14 51.99 13.14C51.61 13.14 51.24 13.2 50.88 13.31C50.54 13.43 50.19 13.6 49.84 13.83L50.21 14.57Q50.65 14.29 51.04 14.14Q51.13 14.11 51.21 14.08Q51.53 13.98 51.87 13.98C52.29 13.98 52.6 14.09 52.82 14.29C53.04 14.5 53.15 14.79 53.15 15.15L53.15 15.48C52.97 15.41 52.75 15.36 52.5 15.32C52.26 15.29 52.03 15.27 51.79 15.27C51.35 15.27 50.97 15.34 50.63 15.48C50.3 15.62 50.04 15.81 49.84 16.06ZM66.84 18.35C67.17 18.49 67.54 18.56 67.95 18.56C68.32 18.56 68.66 18.51 68.96 18.39C69.26 18.27 69.53 18.11 69.75 17.91C69.97 17.71 70.14 17.48 70.26 17.22L69.18 16.9C69.12 17.04 69.03 17.16 68.91 17.27C68.78 17.38 68.63 17.47 68.46 17.53C68.29 17.59 68.12 17.62 67.94 17.62Q67.68 17.62 67.44 17.54Q67.28 17.49 67.14 17.39C66.9 17.23 66.72 17.02 66.58 16.75Q66.55 16.7 66.52 16.64Q66.37 16.28 66.37 15.84C66.37 15.5 66.43 15.19 66.57 14.93C66.71 14.67 66.89 14.46 67.13 14.31C67.37 14.16 67.63 14.08 67.93 14.08C68.19 14.08 68.42 14.15 68.64 14.27C68.86 14.39 69.03 14.56 69.15 14.78L70.22 14.44C70.03 14.05 69.74 13.74 69.34 13.5C68.94 13.26 68.48 13.14 67.95 13.14Q67.13 13.14 66.52 13.5Q66.52 13.51 66.51 13.51C66.11 13.76 65.79 14.09 65.57 14.49Q65.49 14.64 65.43 14.79Q65.24 15.28 65.24 15.84C65.24 16.21 65.3 16.56 65.43 16.88C65.56 17.21 65.75 17.5 65.99 17.75C66.23 18.01 66.51 18.21 66.84 18.35ZM72.17 16.39L70.77 18.46L71.97 18.46L73.25 16.57L74.11 16.57L74.11 18.46L75.21 18.46L75.21 13.22L72.91 13.22C72.55 13.22 72.24 13.29 71.96 13.43C71.69 13.57 71.48 13.77 71.32 14.01C71.18 14.26 71.1 14.55 71.1 14.87C71.1 15.3 71.2 15.64 71.39 15.89C71.59 16.15 71.85 16.31 72.17 16.39ZM32.46 13.23L32.46 18.46L33.56 18.46L33.56 14.2L35.86 14.2L35.86 18.46L36.96 18.46L36.96 13.23L32.46 13.23ZM38.29 13.24L38.29 18.46L39.32 18.46L41.94 14.79L41.94 18.46L43.04 18.46L43.04 13.23L42.04 13.23L39.39 16.99L39.39 13.24L38.29 13.24ZM56.77 14.2L56.77 18.46L57.87 18.46L57.87 14.2L59.61 14.2L59.61 13.23L55.04 13.23L55.04 14.2L56.77 14.2ZM60.43 13.23L60.43 18.46L62.85 18.46C63.25 18.46 63.58 18.39 63.85 18.23C64.12 18.08 64.33 17.87 64.47 17.59C64.61 17.32 64.68 17.01 64.68 16.66Q64.68 16.13 64.44 15.73Q64.34 15.57 64.19 15.42C63.87 15.11 63.4 14.95 62.78 14.95L61.53 14.95L61.53 13.23L60.43 13.23ZM74.11 15.77L73.02 15.77C72.75 15.77 72.54 15.69 72.39 15.52C72.25 15.36 72.18 15.15 72.18 14.9C72.18 14.66 72.26 14.46 72.42 14.3C72.59 14.15 72.81 14.07 73.09 14.07L74.11 14.07L74.11 15.77ZM62.68 17.61L61.53 17.61L61.53 15.77L62.67 15.77C62.9 15.77 63.09 15.82 63.22 15.9C63.36 15.98 63.46 16.09 63.52 16.23C63.58 16.37 63.61 16.52 63.61 16.68C63.61 16.85 63.58 17.01 63.51 17.15C63.44 17.29 63.34 17.41 63.21 17.49Q63.01 17.61 62.68 17.61ZM29.96 16.99C29.91 17.08 29.85 17.17 29.77 17.25C29.63 17.4 29.46 17.52 29.24 17.61C29.02 17.71 28.79 17.75 28.55 17.75Q28.2 17.75 27.96 17.62C27.8 17.54 27.68 17.42 27.6 17.28C27.52 17.14 27.48 17 27.48 16.84C27.48 16.56 27.6 16.34 27.85 16.18Q28.23 15.94 28.83 15.94C29.03 15.94 29.23 15.96 29.44 16Q29.75 16.05 30.03 16.16L30.03 16.76C30.03 16.83 30 16.91 29.96 16.99ZM53.08 16.99C53.04 17.08 52.97 17.17 52.89 17.25Q52.69 17.47 52.36 17.61C52.14 17.71 51.91 17.75 51.67 17.75Q51.32 17.75 51.08 17.62C50.93 17.54 50.81 17.42 50.72 17.28C50.64 17.14 50.6 17 50.6 16.84C50.6 16.56 50.73 16.34 50.97 16.18C51.23 16.02 51.55 15.94 51.95 15.94Q52.25 15.94 52.56 16Q52.87 16.05 53.15 16.16L53.15 16.76C53.15 16.83 53.13 16.91 53.08 16.99Z" fill="#07305D" fill-opacity="1.000000" fill-rule="evenodd"/>
	<path id="Vector" d="M114.17 24.6L120.8 24.6L120.8 17.52M120.79 24.62L112.82 " stroke="#07305D" stroke-opacity="1.000000" stroke-width="2.000000"/>
</svg>
