<svg width="41.000000" height="41.000000" viewBox="0 0 41 41" fill="none" xmlns="http://www.w3.org/2000/svg" xmlns:xlink="http://www.w3.org/1999/xlink">
	<desc>
			Created with Pixso.
	</desc>
	<defs>
		<clipPath id="clip1_317">
			<rect id="Frame" width="17.982456" height="17.982456" transform="translate(10.789551 11.688477)" fill="white" fill-opacity="0"/>
		</clipPath>
	</defs>
	<circle id="Ellipse 119" cx="20.230225" cy="20.230469" r="19.730263" stroke="#FFFFFF" stroke-opacity="1.000000" stroke-width="1.000000"/>
	<rect id="Frame" width="17.982456" height="17.982456" transform="translate(10.789551 11.688477)" fill="#FFFFFF" fill-opacity="0"/>
	<g clip-path="url(#clip1_317)">
		<path id="Vector" d="M27.32 23.49C26.22 23.49 25.14 23.31 24.12 22.98C23.61 22.8 23.03 22.94 22.69 23.28L20.67 24.8C18.33 23.55 16.88 22.11 15.65 19.78L17.13 17.81C17.51 17.43 17.65 16.87 17.49 16.34C17.15 15.31 16.97 14.23 16.97 13.13C16.97 12.33 16.33 11.68 15.53 11.68L12.23 11.68C11.43 11.68 10.78 12.33 10.78 13.13C10.78 22.25 18.2 29.67 27.32 29.67C28.12 29.67 28.77 29.02 28.77 28.22L28.77 24.93C28.77 24.13 28.12 23.49 27.32 23.49ZM27.77 28.22C27.77 28.47 27.57 28.67 27.32 28.67C18.75 28.67 11.78 21.7 11.78 13.13C11.78 12.88 11.98 12.68 12.23 12.68L15.53 12.68C15.77 12.68 15.97 12.88 15.97 13.13C15.97 14.33 16.16 15.52 16.53 16.64C16.59 16.81 16.54 16.98 16.38 17.16L14.66 19.43C14.54 19.58 14.53 19.79 14.61 19.96C16.01 22.71 17.72 24.42 20.49 25.84C20.66 25.92 20.87 25.91 21.02 25.79L23.35 24.03C23.46 23.91 23.64 23.87 23.8 23.92C24.93 24.3 26.12 24.49 27.32 24.49C27.57 24.49 27.77 24.68 27.77 24.93L27.77 28.22Z" fill="#FFFFFF" fill-opacity="1.000000" fill-rule="nonzero"/>
	</g>
</svg>
