<svg width="202.000000" height="132.000000" viewBox="0 0 202 132" fill="none" xmlns="http://www.w3.org/2000/svg" xmlns:xlink="http://www.w3.org/1999/xlink">
	<desc>
			Created with Pixso.
	</desc>
	<defs/>
	<path id="250%" d="M52.04 43L52.04 38.59L38.83 38.59L46.31 31.47Q49.04 28.91 50 26.92Q50.33 26.22 50.55 25.48Q50.95 24.12 50.95 22.63Q50.95 20.44 50.01 18.79Q49.35 17.64 48.23 16.75Q45.51 14.6 40.95 14.6Q37.51 14.6 34.73 15.82Q32.31 16.88 30.76 18.69Q30.53 18.95 30.32 19.24L33.96 22.04Q34.68 21.11 35.6 20.48Q37.59 19.12 40.51 19.12Q43.07 19.12 44.39 20.16Q44.8 20.49 45.09 20.9Q45.72 21.81 45.72 23.15Q45.72 24.48 45.05 25.82Q44.4 27.16 42.51 28.95L31.39 39.52L31.39 43L52.04 43ZM85.66 42.53Q87.68 43.4 90.07 43.4Q92.42 43.4 94.42 42.57Q95.29 42.21 96.09 41.7Q96.38 41.51 96.66 41.3Q98.92 39.64 100.27 36.74Q101.79 33.47 101.79 28.99Q101.79 24.52 100.27 21.26Q98.92 18.36 96.66 16.69Q96.38 16.48 96.09 16.3Q95.29 15.78 94.42 15.43Q92.42 14.6 90.07 14.6Q87.68 14.6 85.66 15.46Q84.84 15.81 84.08 16.3Q83.88 16.43 83.68 16.56Q81.32 18.24 79.92 21.26Q78.39 24.52 78.39 28.99Q78.39 33.47 79.92 36.74Q81.32 39.75 83.68 41.43Q83.88 41.57 84.08 41.7Q84.84 42.19 85.66 42.53ZM108.4 29.33Q109.77 30.08 111.55 30.08Q113.35 30.08 114.74 29.32Q115.66 28.82 116.41 27.98Q116.61 27.75 116.79 27.5Q118.27 25.5 118.27 22.4Q118.27 19.28 116.78 17.27Q116.6 17.03 116.41 16.81Q115.66 15.97 114.74 15.47Q113.35 14.71 111.55 14.71Q109.77 14.71 108.4 15.46Q107.46 15.97 106.71 16.83Q106.51 17.06 106.33 17.31Q104.87 19.33 104.87 22.4Q104.87 25.45 106.32 27.46Q106.5 27.72 106.71 27.96Q107.46 28.82 108.4 29.33ZM72.55 28.14Q69.71 25.84 63.79 25.84L61.12 25.84L61.71 19.35L73.75 19.35L73.75 15L57.32 15L55.87 30.23L62.63 30.23Q66.75 30.23 68.45 31.33Q69.2 31.82 69.62 32.5Q70.16 33.38 70.16 34.6Q70.16 35.66 69.71 36.48Q69.32 37.21 68.58 37.74Q67 38.87 64.23 38.87Q63 38.87 61.81 38.67Q60.75 38.48 59.73 38.14Q57.55 37.4 56 36.11L53.79 40.15Q55.72 41.68 58.51 42.54Q59.2 42.75 59.9 42.91Q62.05 43.4 64.31 43.4Q67.95 43.4 70.43 42.19Q72.72 41.09 73.95 39.27Q74.06 39.11 74.15 38.95Q74.55 38.3 74.82 37.61Q75.39 36.11 75.39 34.39Q75.39 31.99 74.35 30.21Q73.67 29.05 72.55 28.14ZM132.28 15L128.36 15L109.24 43L113.16 43L132.28 15ZM113.15 26.88Q112.47 27.27 111.55 27.27Q110.82 27.27 110.22 26.99Q109.55 26.66 109.05 25.97Q108.12 24.67 108.12 22.4Q108.12 20.11 109.05 18.82Q109.55 18.13 110.22 17.8Q110.82 17.52 111.55 17.52Q112.47 17.52 113.15 17.91Q113.69 18.23 114.09 18.8Q114.99 20.08 114.99 22.4Q114.99 24.71 114.09 25.99Q113.69 26.56 113.15 26.88ZM92.7 38.28Q91.54 38.87 90.07 38.87Q88.67 38.87 87.55 38.32Q86.29 37.7 85.38 36.39Q83.64 33.91 83.64 28.99Q83.64 24.08 85.38 21.6Q86.29 20.29 87.55 19.67Q88.67 19.12 90.07 19.12Q91.54 19.12 92.7 19.71Q93.92 20.33 94.81 21.6Q96.56 24.08 96.56 28.99Q96.56 33.91 94.81 36.39Q93.92 37.66 92.7 38.28ZM126.76 42.53Q128.13 43.28 129.91 43.28Q131.68 43.28 133.06 42.54Q134.01 42.03 134.77 41.16Q135.02 40.87 135.23 40.57Q136.63 38.57 136.63 35.59Q136.63 32.61 135.22 30.62Q135.01 30.31 134.77 30.04Q134.01 29.17 133.06 28.66Q131.68 27.92 129.91 27.92Q128.13 27.92 126.76 28.66Q125.82 29.18 125.07 30.04Q124.86 30.28 124.68 30.53Q123.23 32.54 123.23 35.59Q123.23 38.63 124.67 40.65Q124.86 40.91 125.07 41.16Q125.82 42.02 126.76 42.53ZM131.36 40.14Q130.73 40.48 129.91 40.48Q129.08 40.48 128.43 40.13Q127.83 39.81 127.39 39.2Q126.48 37.92 126.48 35.59Q126.48 33.28 127.39 32Q127.83 31.39 128.43 31.07Q129.08 30.72 129.91 30.72Q130.73 30.72 131.36 31.06Q131.98 31.38 132.43 32.02Q133.36 33.32 133.36 35.59Q133.36 37.88 132.43 39.18Q131.98 39.82 131.36 40.14Z" fill="#FFFFFF" fill-opacity="1.000000" fill-rule="evenodd"/>
	<line id="Line 169" x1="0.500000" y1="0.000000" x2="0.500000" y2="132.000000" stroke="#FFFFFF" stroke-opacity="0.610000" stroke-width="1.000000"/>
	<path id="увеличение личной продуктивности" d="M173.96 94.74C174.35 95.08 174.91 95.25 175.64 95.25C176.35 95.25 176.91 95.08 177.3 94.74C177.7 94.4 177.89 93.97 177.89 93.44L177.11 93.44C177.08 93.78 176.95 94.06 176.71 94.26C176.49 94.46 176.13 94.56 175.64 94.56C175.14 94.56 174.76 94.46 174.52 94.24C174.28 94.03 174.17 93.76 174.17 93.44L173.37 93.44C173.37 93.97 173.56 94.4 173.96 94.74ZM50.37 104.47C50.88 104.69 51.43 104.8 52.03 104.8C52.57 104.8 53.08 104.72 53.55 104.55C54.03 104.37 54.45 104.12 54.8 103.8Q55.33 103.32 55.58 102.72L54.64 102.47C54.45 102.92 54.1 103.28 53.61 103.56C53.13 103.83 52.62 103.97 52.08 103.97C51.54 103.97 51.05 103.84 50.59 103.57Q50.34 103.42 50.13 103.23Q49.76 102.9 49.49 102.47C49.21 102 49.04 101.46 48.99 100.87L56.13 100.87C56.14 100.82 56.14 100.77 56.14 100.69L56.14 100.44Q56.14 99.63 55.88 98.91Q55.77 98.61 55.61 98.32C55.26 97.67 54.78 97.15 54.16 96.76C53.55 96.36 52.83 96.16 52.01 96.16C51.21 96.16 50.5 96.36 49.87 96.76C49.24 97.14 48.74 97.66 48.38 98.31C48.03 98.96 47.85 99.67 47.85 100.45C47.85 101.05 47.95 101.61 48.16 102.13C48.37 102.65 48.66 103.12 49.04 103.52C49.41 103.92 49.85 104.23 50.37 104.47ZM86.62 104.47C87.13 104.69 87.68 104.8 88.28 104.8C88.82 104.8 89.33 104.72 89.8 104.55C90.28 104.37 90.7 104.12 91.05 103.8Q91.58 103.32 91.83 102.72L90.89 102.47C90.7 102.92 90.35 103.28 89.86 103.56C89.38 103.83 88.87 103.97 88.33 103.97C87.79 103.97 87.3 103.84 86.84 103.57Q86.59 103.42 86.38 103.23Q86.01 102.9 85.74 102.47C85.46 102 85.29 101.46 85.24 100.87L92.38 100.87C92.39 100.82 92.39 100.77 92.39 100.69L92.39 100.44C92.39 99.67 92.22 98.96 91.86 98.32C91.51 97.67 91.03 97.15 90.41 96.76C89.8 96.36 89.08 96.16 88.26 96.16C87.46 96.16 86.75 96.36 86.12 96.76C85.49 97.14 84.99 97.66 84.63 98.31C84.28 98.96 84.1 99.67 84.1 100.45C84.1 101.05 84.2 101.61 84.41 102.13C84.62 102.65 84.91 103.12 85.29 103.52C85.66 103.92 86.1 104.23 86.62 104.47ZM114.83 104.47C115.35 104.69 115.9 104.8 116.5 104.8C117.04 104.8 117.55 104.72 118.02 104.55C118.5 104.37 118.91 104.12 119.27 103.8C119.62 103.48 119.88 103.12 120.05 102.72L119.11 102.47C118.91 102.92 118.57 103.28 118.08 103.56C117.6 103.83 117.09 103.97 116.55 103.97C116.01 103.97 115.52 103.84 115.06 103.57C114.61 103.29 114.24 102.93 113.95 102.47C113.68 102 113.51 101.46 113.46 100.87L120.59 100.87C120.61 100.82 120.61 100.77 120.61 100.69L120.61 100.44C120.61 99.67 120.43 98.96 120.08 98.32C119.73 97.67 119.25 97.15 118.63 96.76Q118.51 96.68 118.39 96.61Q117.56 96.16 116.48 96.16C115.68 96.16 114.97 96.36 114.34 96.76C113.71 97.14 113.21 97.66 112.85 98.31C112.5 98.96 112.32 99.67 112.32 100.45C112.32 101.05 112.42 101.61 112.63 102.13C112.84 102.65 113.13 103.12 113.51 103.52C113.88 103.92 114.32 104.23 114.83 104.47ZM164.44 104.47C164.95 104.69 165.51 104.8 166.11 104.8C166.71 104.8 167.27 104.69 167.77 104.47Q168.39 104.18 168.87 103.74Q168.98 103.63 169.08 103.52C169.46 103.12 169.74 102.66 169.95 102.15Q170.04 101.91 170.1 101.67Q170.25 101.1 170.25 100.5Q170.25 99.6 169.95 98.84C169.74 98.31 169.46 97.85 169.08 97.46Q168.79 97.14 168.45 96.9Q168.13 96.68 167.77 96.52C167.27 96.28 166.72 96.16 166.12 96.16C165.53 96.16 164.97 96.28 164.46 96.52C163.96 96.74 163.52 97.05 163.15 97.46C162.77 97.85 162.49 98.31 162.28 98.84Q161.98 99.6 161.98 100.5Q161.98 101.1 162.13 101.67Q162.19 101.91 162.28 102.15Q162.47 102.61 162.73 103.01Q162.91 103.28 163.13 103.52Q163.34 103.74 163.57 103.92Q163.97 104.24 164.44 104.47ZM31.55 108.04Q31.84 108.13 32.11 108.13Q32.27 108.13 32.42 108.1Q32.7 108.05 32.96 107.89Q33.36 107.67 33.71 107.19C33.94 106.87 34.17 106.46 34.38 105.96L38.35 96.31L37.26 96.31L34.44 103.52L31.39 96.31L30.24 96.31L33.95 104.58L33.53 105.62C33.31 106.15 33.07 106.56 32.83 106.84C32.58 107.11 32.32 107.25 32.04 107.25Q31.93 107.25 31.82 107.22Q31.76 107.21 31.71 107.19Q31.56 107.12 31.39 107.03L30.99 107.8C31.18 107.9 31.37 107.98 31.55 108.04ZM39.85 96.31L39.85 104.64L44.01 104.64C44.5 104.64 44.93 104.55 45.31 104.37C45.69 104.19 45.99 103.93 46.2 103.6C46.43 103.27 46.54 102.88 46.54 102.44C46.54 101.92 46.39 101.49 46.09 101.12C45.79 100.76 45.4 100.51 44.92 100.37C45.33 100.19 45.64 99.92 45.85 99.57Q45.94 99.42 46 99.26Q46.17 98.84 46.17 98.36Q46.17 98.1 46.11 97.86Q46.05 97.6 45.91 97.36C45.75 97.05 45.51 96.8 45.19 96.61C44.87 96.41 44.48 96.31 44.01 96.31L39.85 96.31ZM57.02 103.7L57.02 104.69Q57.72 104.69 58.27 104.4C58.63 104.21 58.93 103.89 59.18 103.44C59.44 103 59.63 102.39 59.77 101.62C59.91 100.84 60 99.88 60.04 98.72L60.08 97.28L63.44 97.28L63.44 104.64L64.52 104.64L64.52 96.31L59.12 96.31L59.02 98.63C58.99 99.64 58.92 100.48 58.81 101.14C58.71 101.79 58.56 102.3 58.38 102.68C58.21 103.05 58.01 103.32 57.79 103.48C57.56 103.62 57.31 103.7 57.02 103.7ZM66.91 96.32L66.91 104.64L67.97 104.64L72.96 97.91L72.96 104.64L74.05 104.64L74.05 96.31L73.07 96.31L68 103.17L68 96.32L66.91 96.32ZM81.2 101.16L81.2 104.64L82.29 104.64L82.29 96.31L81.2 96.31L81.2 100.31C80.96 100.45 80.66 100.56 80.29 100.64Q79.73 100.77 79.17 100.77L79.17 100.77C78.49 100.77 78 100.6 77.69 100.26C77.39 99.92 77.25 99.37 77.25 98.63L77.25 96.31L76.16 96.31L76.16 98.77C76.16 99.74 76.39 100.46 76.85 100.93Q76.86 100.95 76.88 100.96Q77.58 101.64 78.93 101.64C79.35 101.64 79.75 101.6 80.13 101.52C80.5 101.44 80.86 101.32 81.2 101.16ZM94.05 96.31L94.05 104.64L95.14 104.64L95.14 100.87L99.91 100.87L99.91 104.64L101 104.64L101 96.31L99.91 96.31L99.91 99.89L95.14 99.89L95.14 96.31L94.05 96.31ZM103.38 96.32L103.38 104.64L104.44 104.64L109.43 97.91L109.43 104.64L110.52 104.64L110.52 96.31L109.54 96.31L104.47 103.17L104.47 96.32L103.38 96.32ZM125.57 103.7L125.57 104.69Q126.27 104.69 126.82 104.4C127.18 104.21 127.48 103.89 127.73 103.44Q128.11 102.77 128.32 101.62Q128.53 100.45 128.59 98.72L128.62 97.28L131.98 97.28L131.98 104.64L133.07 104.64L133.07 96.31L127.66 96.31L127.57 98.63C127.54 99.64 127.47 100.48 127.36 101.14C127.25 101.79 127.11 102.3 126.93 102.68Q126.67 103.24 126.34 103.48C126.11 103.62 125.86 103.7 125.57 103.7ZM135.46 96.32L135.46 104.64L136.52 104.64L141.51 97.91L141.51 104.64L142.6 104.64L142.6 96.31L141.62 96.31L136.55 103.17L136.55 96.32L135.46 96.32ZM149.74 101.16L149.74 104.64L150.83 104.64L150.83 96.31L149.74 96.31L149.74 100.31C149.51 100.45 149.21 100.56 148.83 100.64C148.46 100.73 148.09 100.77 147.71 100.77C147.04 100.77 146.55 100.6 146.24 100.26C145.94 99.92 145.79 99.37 145.79 98.63L145.79 96.31L144.7 96.31L144.7 98.77Q144.7 100.23 145.39 100.93C145.86 101.4 146.56 101.64 147.47 101.64Q148.11 101.64 148.67 101.52C149.05 101.44 149.4 101.32 149.74 101.16ZM153.21 96.31L153.21 104.64L154.3 104.64L154.3 100.87L159.07 100.87L159.07 104.64L160.15 104.64L160.15 96.31L159.07 96.31L159.07 99.89L154.3 99.89L154.3 96.31L153.21 96.31ZM172.05 96.32L172.05 104.64L173.11 104.64L178.1 97.91L178.1 104.64L179.19 104.64L179.19 96.31L178.21 96.31L173.14 103.17L173.14 96.32L172.05 96.32ZM55.12 100.08L48.96 100.08Q49.02 99.2 49.42 98.53Q49.43 98.51 49.44 98.5Q49.77 97.96 50.23 97.61Q50.38 97.5 50.54 97.41C50.99 97.14 51.49 97.01 52.03 97.01Q52.56 97.01 53.03 97.18Q53.28 97.27 53.52 97.41C53.98 97.67 54.34 98.02 54.62 98.48C54.91 98.94 55.07 99.48 55.12 100.08ZM91.37 100.08L85.21 100.08Q85.27 99.2 85.67 98.53Q85.68 98.51 85.69 98.5Q86.02 97.96 86.48 97.61Q86.63 97.5 86.79 97.41C87.24 97.14 87.74 97.01 88.28 97.01C88.82 97.01 89.32 97.14 89.77 97.41C90.23 97.67 90.59 98.02 90.87 98.48C91.16 98.94 91.32 99.48 91.37 100.08ZM119.59 100.08L113.43 100.08C113.47 99.49 113.63 98.96 113.91 98.5C114.19 98.03 114.56 97.67 115.01 97.41C115.46 97.14 115.95 97.01 116.5 97.01C117.04 97.01 117.54 97.14 117.99 97.41C118.45 97.67 118.81 98.02 119.09 98.48C119.38 98.94 119.54 99.48 119.59 100.08ZM43.72 100.07L40.89 100.07L40.89 97.09L43.79 97.09Q44.12 97.09 44.38 97.23Q44.59 97.33 44.75 97.52C45 97.81 45.13 98.15 45.13 98.53C45.13 98.79 45.07 99.03 44.95 99.27C44.84 99.5 44.67 99.69 44.46 99.84C44.25 99.99 44 100.07 43.72 100.07ZM163.48 102.21C163.22 101.7 163.08 101.13 163.08 100.52C163.08 99.89 163.22 99.32 163.5 98.82C163.78 98.31 164.14 97.9 164.59 97.59C165.05 97.28 165.55 97.12 166.11 97.12Q166.56 97.12 166.97 97.25Q167.31 97.37 167.63 97.57C168.09 97.87 168.45 98.28 168.73 98.79C169.01 99.3 169.15 99.86 169.15 100.48C169.15 101.09 169.01 101.66 168.73 102.18C168.45 102.69 168.09 103.1 167.63 103.4C167.17 103.69 166.66 103.84 166.11 103.84C165.55 103.84 165.05 103.7 164.59 103.41C164.13 103.11 163.76 102.71 163.48 102.21ZM43.98 103.86L40.89 103.86L40.89 100.82L44.04 100.82C44.32 100.82 44.57 100.89 44.78 101.03C44.99 101.17 45.16 101.35 45.29 101.59C45.42 101.81 45.48 102.06 45.48 102.34C45.48 102.6 45.41 102.84 45.27 103.08C45.15 103.31 44.97 103.5 44.73 103.65Q44.62 103.72 44.5 103.77Q44.26 103.86 43.98 103.86ZM42.67 124.26C43.23 124.62 43.85 124.8 44.54 124.8C45.3 124.8 45.96 124.61 46.53 124.21C47.09 123.82 47.53 123.29 47.84 122.64C48.16 121.98 48.32 121.26 48.32 120.48C48.32 119.93 48.22 119.4 48.02 118.88C47.82 118.36 47.55 117.9 47.2 117.49C46.85 117.09 46.43 116.77 45.95 116.53C45.47 116.29 44.94 116.16 44.37 116.16Q43.98 116.16 43.62 116.25Q43.08 116.37 42.59 116.66Q42.05 116.97 41.65 117.41Q41.44 117.65 41.26 117.92L41.26 116.31L40.29 116.31L40.29 128.05L41.38 128.05L41.38 122.92C41.7 123.45 42.13 123.9 42.67 124.26ZM52.05 124.47C52.56 124.69 53.12 124.8 53.72 124.8Q54.63 124.8 55.38 124.47C55.89 124.23 56.33 123.92 56.69 123.52C57.07 123.12 57.35 122.66 57.56 122.15C57.76 121.62 57.86 121.08 57.86 120.5C57.86 119.9 57.76 119.35 57.56 118.84C57.35 118.31 57.07 117.85 56.69 117.46C56.32 117.05 55.88 116.74 55.38 116.52C54.88 116.28 54.33 116.16 53.73 116.16C53.13 116.16 52.58 116.28 52.07 116.52C51.57 116.74 51.13 117.05 50.76 117.46C50.38 117.85 50.09 118.31 49.89 118.84C49.69 119.35 49.59 119.9 49.59 120.5C49.59 121.08 49.69 121.62 49.89 122.15C50.09 122.66 50.38 123.12 50.74 123.52C51.11 123.92 51.55 124.23 52.05 124.47ZM122.85 124.47C123.36 124.69 123.92 124.8 124.51 124.8C125.12 124.8 125.68 124.69 126.18 124.47Q126.8 124.18 127.28 123.74Q127.39 123.63 127.49 123.52C127.86 123.12 128.15 122.66 128.35 122.15C128.56 121.62 128.66 121.08 128.66 120.5C128.66 119.9 128.56 119.35 128.35 118.84C128.15 118.31 127.86 117.85 127.49 117.46Q127.2 117.14 126.85 116.9Q126.54 116.68 126.18 116.52C125.68 116.28 125.13 116.16 124.53 116.16C123.93 116.16 123.38 116.28 122.87 116.52C122.36 116.74 121.93 117.05 121.55 117.46C121.18 117.85 120.89 118.31 120.69 118.84C120.49 119.35 120.39 119.9 120.39 120.5C120.39 121.08 120.49 121.62 120.69 122.15C120.89 122.66 121.17 123.12 121.54 123.52C121.91 123.92 122.35 124.23 122.85 124.47ZM132.41 124.47C132.92 124.69 133.48 124.8 134.09 124.8C134.63 124.8 135.12 124.72 135.58 124.55C136.05 124.37 136.46 124.12 136.8 123.81C137.15 123.49 137.4 123.13 137.55 122.74L136.48 122.42C136.39 122.68 136.22 122.92 135.96 123.14C135.72 123.35 135.43 123.52 135.08 123.65C134.75 123.78 134.41 123.84 134.04 123.84C133.49 123.84 132.98 123.69 132.52 123.4C132.07 123.09 131.7 122.68 131.42 122.16C131.14 121.65 131 121.08 131 120.45C131 119.81 131.14 119.24 131.4 118.74C131.68 118.24 132.05 117.84 132.51 117.56C132.97 117.27 133.47 117.12 134.03 117.12C134.54 117.12 135 117.25 135.42 117.49C135.85 117.73 136.18 118.06 136.41 118.48L137.47 118.15C137.18 117.54 136.74 117.06 136.14 116.71C135.54 116.34 134.86 116.16 134.08 116.16Q133.02 116.16 132.18 116.59Q132.04 116.66 131.9 116.74C131.27 117.12 130.78 117.64 130.43 118.29C130.08 118.94 129.9 119.66 129.9 120.45C129.9 121.04 130 121.59 130.2 122.12C130.42 122.64 130.71 123.1 131.08 123.51C131.47 123.91 131.91 124.23 132.41 124.47ZM31.18 116.31L31.18 124.64L32.27 124.64L32.27 117.28L36.8 117.28L36.8 124.64L37.88 124.64L37.88 116.31L31.18 116.31ZM58.75 123.67L58.75 126.58L59.71 126.58L59.71 124.64L66.34 124.64L66.34 126.58L67.31 126.58L67.31 123.67L66.19 123.67L66.19 116.31L60.77 116.31L60.69 118.63C60.66 119.63 60.59 120.46 60.5 121.12C60.4 121.77 60.27 122.29 60.11 122.66Q59.87 123.22 59.57 123.44C59.36 123.59 59.14 123.67 58.9 123.67L58.75 123.67ZM69.31 128.03C69.5 128.1 69.69 128.13 69.87 128.13C70.17 128.13 70.45 128.05 70.72 127.89C70.99 127.74 71.24 127.51 71.47 127.19C71.71 126.87 71.93 126.46 72.14 125.96L76.11 116.31L75.02 116.31L72.21 123.52L69.15 116.31L68 116.31L71.71 124.58L71.3 125.62C71.07 126.15 70.84 126.56 70.59 126.84C70.35 127.11 70.09 127.25 69.81 127.25C69.69 127.25 69.58 127.23 69.47 127.19C69.38 127.14 69.27 127.09 69.15 127.03L68.75 127.8C68.94 127.9 69.13 127.98 69.31 128.03ZM77.62 116.31L77.62 124.64L78.7 124.64L78.7 120.88L79.95 120.88L83.12 124.64L84.4 124.64L80.82 120.36L84 116.31L82.75 116.31L79.95 119.88L78.7 119.88L78.7 116.31L77.62 116.31ZM88.03 117.28L88.03 124.64L89.11 124.64L89.11 117.28L92.09 117.28L92.09 116.31L85.05 116.31L85.05 117.28L88.03 117.28ZM93.55 116.32L93.55 124.64L94.61 124.64L99.6 117.91L99.6 124.64L100.69 124.64L100.69 116.31L99.71 116.31L94.64 123.17L94.64 116.32L93.55 116.32ZM103.05 116.31L103.05 124.64L107.21 124.64C107.71 124.64 108.14 124.55 108.51 124.37C108.89 124.19 109.19 123.93 109.41 123.6C109.63 123.27 109.74 122.88 109.74 122.44C109.74 121.92 109.59 121.49 109.29 121.12C109 120.76 108.61 120.51 108.13 120.37C108.53 120.19 108.84 119.92 109.05 119.57C109.27 119.21 109.37 118.8 109.37 118.36C109.37 118 109.29 117.67 109.12 117.36C108.96 117.05 108.72 116.8 108.4 116.61C108.08 116.41 107.68 116.31 107.21 116.31L103.05 116.31ZM111.62 116.31L111.62 124.64L112.71 124.64L112.71 120.87L117.47 120.87L117.47 124.64L118.56 124.64L118.56 116.31L117.47 116.31L117.47 119.89L112.71 119.89L112.71 116.31L111.62 116.31ZM141.34 117.28L141.34 124.64L142.42 124.64L142.42 117.28L145.4 117.28L145.4 116.31L138.36 116.31L138.36 117.28L141.34 117.28ZM146.87 116.32L146.87 124.64L147.92 124.64L152.91 117.91L152.91 124.64L154 124.64L154 116.31L153.03 116.31L147.96 123.17L147.96 116.32L146.87 116.32ZM106.93 120.07L104.09 120.07L104.09 117.09L106.99 117.09C107.39 117.09 107.71 117.24 107.95 117.52Q108.15 117.74 108.24 118Q108.33 118.25 108.33 118.53C108.33 118.79 108.28 119.03 108.16 119.27C108.04 119.5 107.88 119.69 107.66 119.84C107.45 119.99 107.2 120.07 106.93 120.07ZM45.47 123.57C45.11 123.75 44.7 123.84 44.24 123.84C43.84 123.84 43.44 123.75 43.06 123.57C42.68 123.38 42.35 123.13 42.06 122.82C41.78 122.5 41.55 122.14 41.38 121.75L41.38 119.19C41.42 118.91 41.53 118.65 41.71 118.4C41.89 118.16 42.12 117.94 42.38 117.75C42.66 117.54 42.95 117.39 43.25 117.28Q43.7 117.12 44.11 117.12C44.55 117.12 44.96 117.21 45.33 117.4C45.7 117.58 46.03 117.82 46.32 118.13C46.61 118.44 46.83 118.8 46.98 119.2C47.14 119.61 47.22 120.04 47.22 120.48Q47.22 120.78 47.17 121.07Q47.12 121.4 47.01 121.73C46.87 122.13 46.67 122.48 46.4 122.8C46.14 123.12 45.84 123.38 45.47 123.57ZM51.09 122.21C50.83 121.7 50.69 121.13 50.69 120.52C50.69 119.89 50.83 119.32 51.11 118.82C51.39 118.31 51.75 117.9 52.2 117.59C52.65 117.28 53.16 117.12 53.72 117.12Q54.17 117.12 54.57 117.25Q54.92 117.37 55.24 117.57C55.69 117.87 56.06 118.28 56.34 118.79C56.62 119.3 56.76 119.86 56.76 120.48C56.76 121.09 56.62 121.66 56.34 122.18C56.06 122.69 55.69 123.1 55.24 123.4Q54.92 123.6 54.57 123.71Q54.17 123.84 53.72 123.84C53.16 123.84 52.65 123.7 52.2 123.41C51.74 123.11 51.37 122.71 51.09 122.21ZM121.89 122.21C121.62 121.7 121.49 121.13 121.49 120.52C121.49 119.89 121.63 119.32 121.91 118.82C122.18 118.31 122.55 117.9 122.99 117.59C123.45 117.28 123.96 117.12 124.51 117.12Q124.96 117.12 125.37 117.25Q125.72 117.37 126.03 117.57C126.49 117.87 126.86 118.28 127.14 118.79C127.41 119.3 127.55 119.86 127.55 120.48C127.55 121.09 127.41 121.66 127.14 122.18C126.86 122.69 126.49 123.1 126.03 123.4Q125.72 123.6 125.37 123.71Q124.96 123.84 124.51 123.84C123.96 123.84 123.45 123.7 122.99 123.41C122.53 123.11 122.17 122.71 121.89 122.21ZM65.1 123.67L60.54 123.67C60.77 123.48 60.95 123.19 61.1 122.8C61.26 122.41 61.39 121.88 61.49 121.22C61.59 120.55 61.66 119.72 61.7 118.72L61.74 117.28L65.1 117.28L65.1 123.67ZM107.18 123.86L104.09 123.86L104.09 120.82L107.25 120.82C107.52 120.82 107.77 120.89 107.98 121.03C108.2 121.17 108.37 121.35 108.49 121.59C108.62 121.81 108.69 122.06 108.69 122.34C108.69 122.6 108.62 122.84 108.48 123.08C108.35 123.31 108.17 123.5 107.93 123.65C107.71 123.79 107.46 123.86 107.18 123.86Z" fill="#FFFFFF" fill-opacity="0.500000" fill-rule="evenodd"/>
</svg>
